<mxfile host="app.diagrams.net" modified="2024-05-29T13:21:39.991Z" agent="Mozilla/5.0 (Windows NT 10.0; Win64; x64) AppleWebKit/537.36 (KHTML, like Gecko) Chrome/125.0.0.0 Safari/537.36" etag="3JLP14CvzoiejzJ6tjZd" version="24.3.1" type="device">
  <diagram name="Page-1" id="EMZmsT7oY3qPNFfeT1oZ">
    <mxGraphModel dx="1221" dy="725" grid="1" gridSize="10" guides="1" tooltips="1" connect="1" arrows="1" fold="1" page="1" pageScale="1" pageWidth="1169" pageHeight="827" math="0" shadow="0">
      <root>
        <mxCell id="0" />
        <mxCell id="1" parent="0" />
        <mxCell id="P2W2EsWUWs_uclE4OIuN-1" value="" style="shape=image;verticalLabelPosition=bottom;labelBackgroundColor=default;verticalAlign=top;aspect=fixed;imageAspect=0;image=data:image/png,iVBORw0KGgoAAAANSUhEUgAAA74AAAJiCAYAAADg9R7hAAAAAXNSR0IArs4c6QAAAARnQU1BAACxjwv8YQUAAAAJcEhZcwAAFiUAABYlAUlSJPAAAPEKSURBVHhe7J0JnE3l/8c/9n1fGmVJkUhFyshaUVG/tFEq7SVapCKRf2lTohIt0qJCEZK2aUFZixJlIlRCmDCWwRiG8T+f554zc+6Ze2funbl3zIzP+/V65p577rnnPOc559x5Ps93eYqkpKQcgRBCCCGEEEIIUUgpar8KIYQQQgghhBCFEglfIYQQQgghhBCFGrk6CyGEEEIIIUQ+Y9euXdixYwf27NmD1NRUHDki2ZYbJHyFEEIIIYQQIp+wb98+bNy40YjdSpUqoVSpUihZsiSKFy9ubyFygoSvEEIIIYQQQuQDaOX966+/UL16dVStWtVeKyKBYnyFEEIIIYQQ4ihDS++ff/6JevXqSfRGAQlfIYQQQgghhDjK0L25WrVqxrVZRB4JXyGEEEIIIYQ4itDF+eDBg8bFWUSHPBW+n67Zh0vfX4nXf9mFzbtS7LVCCCGEEEIIcezC7M1yb44ueSZ8v125FQ9++DNW/bERn++shDuXlsJTP+zCyi177C2EEEIIIYQQ4tiDUxbJxTm65Inwnb48AXd/8idQrBiKFC1m5qBi+WFfRfT/vRz6fbcL/yQm21sLIYQQQgghxLEDpy7SdEXRJarCl+L2zQUb8MgXf1tvgCKcdJmTJ3nKmkMV8eF6XWghhBBCCCHEsQd1k4RvdIma8E2zLt6IWevw/PcbeSV9JY2W3rT0t+4yb3v+u9Bz5szBZZddhl9++cVeA3z66ae4/fbbTQB6YYPnxHN79dVX7TWB26AwwfPq2rUr1q1bZ6/JG3bv3o3+/ftj2LBhSEk5tuLd+cM+ceJEXH/99Vi/fr29VgjhJq9+I5zfff5vKywcrd91IUQWJCUhyV7M16SlIc1eFIWPHAnf5AOp9lJgDh5KwyOfrMabP272V7fE9dZb8hKKu1NOOSVgcToABw4cMK8FBf6zD3Q+LI899liOOk/5rQ0omv744w88/fTTuPjii9PPr2XLlvj222/trfI/hw8fNqWgw+yDvBa33HILtm3bZq/NTHJyMh555BFT9u7da75XmNmyZQtee+01dO/ePf0eveKKK/Dcc8+ZSel5H+dHAv2G8Nm6//77sWTJknxb71BxRJ73HL0lP4jAwvIbEQgKUgrTrNrZuRf5KoQo4CQtx2u3n407Xl2OfN2zTt2JVQu/wqKVO5G10hEFlbCEb+qhwxgxdwti39+MGb8G7uTuTUnFXR/E4+MV20wnya+kHUH7kypb6sXaMFDJY84880yMHTvWWJ/c5eyzzzafd+nSBZ999hnOOuss876gMHTo0EzndN1116FEiRL2FqETqA04ufbrr7+Or7/+2l6TN/Ae+vzzz825cJ6znj174q233sKgQYNwySWX4NChQ/aW+QfGa0ydOhXvv/++vcYHs/a99NJLGDx4MEqXLm2vLXiULFkS5557Ln799Vcz4XowNm3aZLbhs1WhQgXcdttt+OCDD8wE7YUJ3oM8r8svvxzfffcd2rRpYwbZaLU744wz8PHHH+O9997L94Nqzm/I+PHjceedd5pBjbvuugtffPGFvUXBpGzZsujbt2/67yJ///l/4L777ktfx+L8DziaFJbfCCHEMY4RvddgFG7APVc0Q75O3VSiPKpVLoPd6xZhscRvoSQs4TvwmwS898cBI2D/78d9eHbOZuyzhK7Djr0Hcc3byzF/3S6qlExl8IX18O6dLQN9ZEpeU7FiRSPoaNFwl+OPP97eomBy6qmnZjqnxo0bo1ixYvYWuYNi7ueff87zzjutaOyU9unTx4iJG2+8Ee3bt8ett95qOuoU6fkNWmxWrFhhMvUVVk4//XScdtppxiIYzEK1dOlSlC9fHq1atbLXFD4oet955x2MGjUKAwcOxKRJk9CvXz9ceOGF6NatG5588kl89dVX+UJUZYfzG0LhTuHLAaZLL73UWOjogltQ4UANha7zu8jff/4f4ACMs46loP8PEEKIfMG+DNH75qjH0eEEe32+pQRqnt4W59Qta8TvghVbJX4LGWEJ3+JFrD8UqHaZtOYg7vwsARsTk/HPf7vQ6YV5WL0lyertp2WoWbtMueUM3Nb2RO7GfDdgESILEhISsGzZMiMcFPyff6hWrRrOOecc/PTTT0hMTLTXZkDRv2jRIiM4atasaa8tfPz222+YNm0a/u///g9XXXWVEVleaMWji2dBs+DRUkpByGeQ8wwKIYQQWULRe0tBEr0OGeI3ecNPEr+FjLCE79OdjsMVJ5awRKqlUu3y2/ZDuOaT7fjfO6uwI3EX0lL2I+2QdYsc5udA8+Mr4KeHW6NFvcr2Xvy+7lfyG+EkyFi9erVxuXUsBlzmuvwIXYYZJ+uuL2MPt27dam+RgbcNaGnl9vPnzzeJVxiDlVdJROgie/LJJxuXWp5DdjCe74033kiPBb755pvxzTffhOQSHep3GatKl+877rgDzZs3N+Wee+4x7UHrGN1bJ0+ejJdfftnsx4lZY7w1467dicSIc23o3njeeeeZ7RkbyrqwTm64f8Yr8rrRHd2JJ2VdOUAQShtFAnoS8J74/fffjXXby99//20svueff366GHTq7j2nrJ4jeho8++yzGDBggHG3d+B5Mp722muvxebNm+21vvVjxozJtH004H3w5ZdfolmzZuY8ixThKGFohHPNjyZpaWnGOlquXDnz3onTDBSD6b2+fHUSKNHtfciQIeb68nx5jaJ9fXIC65zdb4Dz+7hq1Srjws7zcfIpOG3AwQKGOnA/PGf+FvB8uY2znr8bvNfp1eIQ6Dci3HbkIAXPgfcTz4HH4jFzku8hvxDKdQmEcz04OMft+T1+n7+bH374YYFuEyHyHQVW9DpI/BZWwhK+JUsUx9OdT0DvpqVxhEZduySlHMaRijEoXfsk9uJw5ADF70H0a18HU3udhSplPbGl7I8HKgUUungy/o2TTjMmi4Uun1wXSAgcbWiZ6927t+msP//886YjRjdUdryZeCcrOnfunCku7vHHH88TS179+vVx5ZVXGvHDTp7TqQ4EOzc8Hwr0Bx54wNSzdevWpqNIF9SsRGGo32XCJtaFFj4KHoovliZNmhgrJy3TdH2lq+s111xj9sPC8wgE98sYyptuusm4kTtxlowXZWwo6+S1qO7fvx9vvvkmVq5ciQcffNDEXlOIctusYm4jDc+ZbcRngQLVgedE0duwYUPTycyK7J4jxqi3aNHCCGH3IA2TZVE4Uuy7B2C4fu3ateY7jliLFrwXWQe6zvJZCpWcXPOjgSMWaNmnhT+n8D5lMjTGhb/yyivmueAzQlfq/JTIKZzfDy5TTNJdmlnw6dLuWPT5fDJOmq9PPfWUEV78PtfxvCleec35GQeOOAAZiit5KO1IIUe3ez5X/L137is+V1zOT+0dKuFcl0DwnCmAeS8zRIaDFW3btjX/B3kNQxkUFUJkQ4EXvQ7+4vf75QkSv4WAsISvw73tamFo6wr8j+9XipWtjLJ1G6FYyTJ4/6bTcW9HSwgHgP+cApW8hv88OVrODrlT2DHJSlB54Yg6OzHsePCfL2PiWNiZ4T9UJmNyC4G8oEePHn7nxOJYZZz60irFzhYtBew80UrZq1evbDtdtLh64+LyQlgQujczezAtzezw0IrBzp73erFzw4RS7MSw40exznry/HiNaJlzW1bchPpd3q/cjgmM2PG89957TTs6bUlLL+MEKX4pFGrVqmX2w1KlShX7aP78888/GDdunLEeDx8+3Fwbbs8OGgU1EwzNnDnT71lhrHWNGjXw0EMPmWN37NgRDz/8sPlswYIF5jUv4P3A+4D32X///Wev9QlCujnzPKpXr26vzUyozxEFNKEV2YFTIvG+5QADE2g57UNRwTZt2rSpeR9NaGlLSkpCnTp17DWhkZNrnhdQxFMwLVy40Fgc+dwdd9xxxkqWm1wBHATh88t4YZ4nnyuKft4j7vvmaBLu7wcHYnhfdujQAUWL+v9L5fPJ30x+l/vgdWZit9GjR5try2zZfG7/97//md8Qbs/EfdkRaju2a9fOXD/3OXAaMf425IdYbcdrKFDh/zE3ufldd2D7cBCCAwzO/z4mO6O1nSKY970QIhdQ9Pa+uxCIXocM8Xtw01KJ30JAjoQvKZqShIOJ1j9Y9sfcpWhxlDr+ZEulBI9hYx8uUMlrAmV15j9BxrOFCl3caCW94IIL/OJOuQ+KHlrd8tqNz7EauYtjZWRdGYtI0eg+T7pmsr5sk/wMXWVvuOEGkySIIonXjy6u8+bNs+4h301EqwA7drwmbrHFc6QIoqWW7oeBCPW7FHQcOGFnk1awSLB48WJj7WSGam8M80knnWQGK3788UcjsBwaNWqETp06+W1/wgknmI44LZ55JZjYPuyE0tWY1igHdiT5DFDEZuX+G+pzRPFF6zIFLjvCJD4+3ty3bAcej+dN1qxZY4RouGI0NwSK66XwcHfo3aEBObnmeQF/Q5g1nQKclmf+LtKzoXLljJCVnMBkdDwvB54zB4n4XOUXV9Oc/H4wwVug+5vPJ+9f5zMOGnBbwvvV/RvcoEEDEwMeygBAKO1IqzMHg9zx5NyOdeJAU34Qvt5s2u7Ce9BNbn7XHU488cRMvzH8PgfXateunadeMkIURlZOsETv4u3Ar5Nw5/n+g1nhlNd+tXcYQRJ++cJ4WIVfvsFPG5LNPih+4/PHGK3IITkSvuO+X4cBM9YgdWcCDm7baDrX3tIrbgdemRdk9JV98UAljwmU1Zkd6ECd12DwnzGtNuzMeh9cWt44qr9z505767whUFZnx8rIEXGKYFogvdBaEanMz9GGHcS7777b/CjR1Y2Wk9mzZ5vPHOsb4+O814RWAlpo/v33X7Otl1C/S+FLd1t2IgN1eHMC7yV2zAJZhHkMdsy2b9/uZ+Gmiznbwg1dgilQeO/lZeZt3leOuzPd6ClMucwOubuTHohQnyMKBbqVU1zzOvF60foVGxtrMpfz/qall9Zhuo4y2zSf82jDZ4edaR7bC+8bpzPPjr6bnFzzvIBx6Rw4YFgERfnIkSP9BjRyCr1EvM8Lz53PVV6fYzDC/f3gb0Aw9+9Az2eZMmX8Xh3YLiw8fnaE2o4UwXwGGQ7BUAhaexmakl/wZtN2F/4fc5Ob33UHeuEECsvh7wpDFAI9v0KI0Dn53J5oxoWTbsCwCe/j/RyWi+ua3UWUMlWPx/En5LDUKA/fL24lVAg9mknkQ8ISvofTjuDJT1fjua//sr5ZDEVKlEbq7kSU3PkvSvKfcJq1kau89ksyrp34D7bv8e98W7rYV6xt0pePgvCNFOzY0y3RPVrtlLyKfw0HdtDdI94FGbr5MnmRM9WKe9ogWqgCXRMWWmGyItTvhjNIUtihuzsFKDva7EBS1FE40TrFxGTZEepzROsO3UF5DA4+0MJL0U1LNwd0KNh4H7AjzIEsr0CIBhQ3FKm0PlP0u6Grq9OZZ0e/IFGpUiXjnksRQvGUH6yEeUWovwGOYM1v0KuALuo8Dw4acVCK02txOriCTG5+1zmw63VHd+O2wAshwqfUmXdjwtR+aPb3JHz0zQHUjm2FVjkoJweOCMsVlU5sjubNclBOq4XDu/biiCV6T2odiwbRj+wTUSQs4Tvgo9/x7qIN6Sq1iCV+W5xcE1/ccxZmXFsTlUta//zdStYqK7YdQvu3NmLJOtdoPr/u20XGsvO+gMHOPkeh2el1j1Y7Ja/iX0OFdaE7aqAMzuyw5/XcvJGAnRVmRaVFgFZGuo7SmkLLZ6BrwhJsns5Qv+tsR6ETKWg1otUzkIcAvShozeB95rUg5Sd4vxMmo2Kh+A3FfT6c54jikVY2tj2PUbduXTMAQnHN+4CWXsb9spPrxARHGx6bAn/WrFlYvny5vTZ7CsI1p/hlbC/dy+fOnWvq5cYbV+nUu6CSm9+P/AKvQVxcnPF2YNInek1wLmnWPb8NxIZKJK5LMA8sukhzMI2/JUKI3OGIX0y4Ew8+NRcF97+BRWoCfv5uKf5LrYQG7VqjcRVPsl5R4AhL+BbjoDY7PXbp1f5EfNCnNU6oXgH1a5bH9OticFKlYu5N0svNM7bjrQW+qUYCfc5SEGEHnB1DZvMsCBkh6XLKmC9vfTlVCdfRWhcq7qlj8gLGgTL5C+vqhrFdzOhL8UMLLOO/GEfH86GbaDiE+l12Hlu1amUSqmSXCZtwX9kNKlDc0XrJfXrvJSZzYiItbhNO1uC8hlZXdkAZi0fXc8b2hmLlDOc54vnTAkkhxvuVbcLOMKHIZpwe468ZMxnIhThaMJ6Sx2e2XSb58grEQBSUa05rPDMCT5gwwQwqEA5EUFjRwu6uOwfVfvjhB/tdwSM3vx/5BQ5iUuTxN9E98Mp7jQmeCiKRuC7MAcC4evf/EN67HCTg4JLXvVoIkTMoft/60Cd+bxr0TcEUvx7R26hijqJDRT4jrKv4XPfT0K/TyZZKBcZcdzoeufQUlCqRsYtaVcpiwjXHo2VMcUtJWRt5yguLknDLu7+b7wcsBRB29JngiG6AAwcOxPfff28643x94YUXzD/UvMbJyOoujIOkRZQj2oyjZFZMdtCZtZWFyxRw2bmKEQpnnjeFzbfffmvmsQ0lE2luYTZOxqgx4Q7bmwmt2BFn3CSF1lVXXWWsvxS/1113nRnZ5zQeM2bMMG3Azvi7775rzj1YIp1Qv0tXcV53diwZa8yMxNyObcltmECM0EoRExNjBAzFDdsrWOZQCjXui1MSue8l7pvr6eLLOSfzo1ulA9uPwpfnyQ4ql0NxBw/nOeL5c9CBCc7Yzm6rLq2jhLHfjO91BHFeQOFOl2yKeGak5f3DrOO8J6ZNm2ZiE/mc8d5x3C0LyjVnnTmVGGH8L4UVrdXMjPv++++ba8RnhNfkiSeeMOdVUMnN70d+gb87vP/5m8Os4aw7f685FVBByePgJRLXhcKW/zdGjBhhvsdnk23Ce5hJE/O7JV+IgkTFFj7xW336vQVP/Er0FlrCupLFihZB3wtPxqphnXBps8zJkUiV8qXw6pW1cHF9q7MbQNz+sCElk6XXKQURdkgZX8rswvyny7kFmQ2VmVzplkVrTV7jZGR1F3ZGaYlhp4dxX5yChzFgFJHsMFA8cCon1jk7KHw5JQetnpy6h536vIgZpgigIKCQpPseYw+nT59urAB8T5HlwLhKnhfbn/MUsw3YLpzXlZly2TEMRqjfZcefQoaCm1POcDvO4cn7gHUkvD8ogpg1lJ9xGpNgcFtOa8JzJHRP5D4phjjVCYVRQYhBY/IpdropfrgcCuE+RxS4PAb3707URgsvj8trxPsir6HV6JlnnjHzqbLe7FDzGePzRgscp52iGHas4AXpmrPOFOFTpkwxgoO/JawrrxUHOegO/dlnn5mBKLqcF2Ry8/uRX+B9xWtD8ctr89FHH5nfeE7hU1DJ7XXhQOWjjz5qnlNOYcRnjAPCb7zxhmkvPo9CiMhRIMWvS/Q2at9WoreQUcTqZEZFch5IPYTh327GB/GuEdi0w0hL2YfjmwTuFH1/TcEciRZCCCFE/oXJDzlASe+E3E7LJYQIj6SFo3DHra/h32vexFdPd0D051rIIR7R2yD7vJwRhQlBFXIRXaI2jFGqRHEM6Vwb95xTzhK81grKa/PqmHf9Xy+olb9dx4QQQgghhBDhUbFNP7w1/hW89nA+Fr2kRAxOPanOURG9hF4n2eU5EbkjqvZ7xrHdd/4JGHKedZunpeFI2mGrWK/Uus5URtbrqWX3okfDjGQTQgghhBBCiMJBxTYXoVm+Vr0+yjc446iIXsK8JN4pEUVkyRPH9Z6tYvD8xZWRduggjqQeMEZelnMq7sJLrfZi7GWVcUrMUbrLhBBCCCGEEOIowqkRmchVRI88i9juelYMnru6ITo1q4NLY3bhg4sPYOQl1XHWiYq1EUIIIYQQQhy7MPEeM9eHMh2iyBlRS24lhBBCCCGEECI0OOUlXZ45c4qIPMrRLYQQQgghhBBHmTp16hirL6d2FJFHwlcIIYQQQgghjjLlypVDgwYNsGHDBuzYscNeKyKFXJ2FEEIIIYQQIp+wb98+bNy4EampqahUqRJKlSqFkiVLonjx4vYWIidI+AohhBBCCCFEPmPXrl3G8rtnzx4jgpX4KndI+AohhBBCCCGEKNQoxlcIIYQQQgghRKFGwlcIIYQQQgghRKFGwlcIIYQQQgghRKFGwlcIIYQQQgghRKFGwlcIIYQQQgghRKFGwlcIIYQQQgghRKFGwlcIIYQQQgghRKFGwlcIIYQQQgghRKGmyKZNm47Yy0IIIYQQQgghRKGjSEpKioSvTWJiIqpVq2a/E0IIIUS00f9eIbJHz4kQgQnn2ZCrsxBCCCGEEEKIQo2ErxBCCCGEEEKIQo2ErxBCCCGEEEKIQo2ErxBCCCGEEEKIQo2ErxBCCCGEEEKIQo2ErxBCCCGEEEKIQo2ErxBCCCGEEEKIQo2ErxBCCCGEEEKIQk2RlJSUI/byMY8mBxdCCFEQ2b9/vympqak4fPiwvTb3FCtWDCVKlECZMmVMiQb63ytE9ug5ESIw4TwbsvgKIYQQBRQKXf7T37lzJ1JSUiIqegn3x/1y/zwOjyeEEEIURCR8hRBCiAIIReiOHTtw4MABe0104XF4PIlfIYQQBREJXyGEEKIAkpSUFHELb3bweDyuEEIIUdCQ8BVCCCEKGIznzStLrxcel8cXQgghChISvkIIIUQB42gLTwlfIYQQBQ0JXyGEEKKAcbTjbBXnK4QQoqAh4SuEEEIUMPI6ttfL0T6+EEIIES6ax9eF5kgTQgiRPSsxtuN9mGq/c6jXeSheGNAOVez36Wxbi2X7a6F53fL2ityzefNme+nocfzxx9tLuSPq/3vTDiBp62ok7j+A4hXPQJ1qpewPfBxM/A2bkqzPypyE42pWQ0mZBEQ+JGrPyX+/Y8rPu7DPfhsexdD07HPQ8rhi9nsh8p5wno28Eb5pCZj78ghMXpNsrwidsqf0wID7OyAmD/4RSfgKIYTInr1Yv3QtdtjvDm6bj/EjZmItumPM7N5oYq93WD+jN257ZS3Kt7gVQwf1RPNMyjh8JHxDJRF/LLwUW+xEYCVjZqFNE/9j7Vx5H5YnLPC9KfUMmrW5JPPghRBHmWg9J7/PnImnNtpvckKdxph8+Sn2GyHynnCejTyQk8lY9k7ORC9JXjMZI16ei4Q0e4UQQghxVCmPei2ao7lVTqu6ATNfoegNTr0rx2La87ei4drx6H/jYMxcd9D+RESdTTPwnxG99VGhzudo1iBz56hSg6FocsK1vg7RgdewfpNZXXBYMRUvvvg25iTY7wsCaWsR99qLePHdhdhqrxKiQLB9OWa8M9p65qz795152LFjMSaOehGvzVyFFHuT3LL2y9fw4qh3sbAgPdMFhKgL38SvRmHcUkv0nnEjhg8fHmK5EU3t7xOJXyGEEPmObbMx9L7RWNasL4b1ibVXBqZKi54Y+cE76NtsGUbfNxRx6tDkDal7YLoOxa7ACQ1PQLmSZq0fRUtWw3GNrkW1Eny3CYeVtyv6HDwUMZEgRJ6RthaffTQH61KqomnbCxDbsKK5lw/ZH0eGFBzSb1DUiLrwTU2zr16JMqhYsWKIpQzM/x+LRi2ao6z1eiyI351fDUbHjh0zl3ErrU8ZU2YtD4rDTt/mLnYibhC3HYuV8WMzf9+vWNvwG1key2JbHAabdb7tM+M75uCv/GsTaL8Z2/jOwfsdQ/rxXCXQueaoXk77uMtgxG2zPxZCiLDZi/njRmJxje544dHLcUoo4btl6uHyR19A9xqLMfrt+dYeRJ5xOBFZz3q8BwdMd6UUwxZFtCndGFfe/SAevKUNatqrxLHCbsTHTcTYz1fZ7wsQq+OxNgWo064nLmrZDG3aNUPVmDa4pd+DuPvyxihtb5Y7SqPx5XfjwX63oE2MvUpEjDxwdc4dZc/uhafuOnbEL0yM2GzMdpdejBhrgt6T+yN2yUiMyCQ2R2Dkklj0n9wbTZr2dn13Gvq3BGIHTHOtc8efBTuWm6m4zxHD2bByXEd0G1HXf59WnevanweD3+vYYz7aTXZ9zypj6o9Et6ACNdR6UWx3w8j6Y/z2PW1AdrUSQogsWP0Jxs6piu4P3YYmZex1oVCmCW57qDuqzhmLT1bb60T0KF8fPiPvARzKSvkeSIIvT/U5KFPOLAghosIBbN20FckHCl5m+N07d1t/K6FaDd97UfDI98KXlG12rInfINToggEDYrF4xBSXtXMlpoxYbInbAegS8QfREtMDugNT7sPYeHtVMLbFYeIUW3zbqwxWnXt3Dp4mhBbi+6ZQgA/LVP8mvShQgZE9vNbd0Ou186uJmNqyP6Z5BH2Vzr2j0F5CiGOFlXMnISGmCzo29cmqKp2HwX9gMTglm3bBNY0SELc0q8hgERHSezmbcCirVCPJSZB3oRAiKw4UQLEu/Ck2ZMiQofZyVNi7di7mrtkLHN8C/zurlr02OxKw9Iul1l+g+qntcWrlA0ir0hQtq27Eot8TcSAxHj/9WQFnnnsiIjc5BLB//36ULUt5fXRI+XM2PlpUCZfcfDaCabIyDWph//sjMfLAObi5RQ2sHNcDI8v1x8u9T0dmo0MK/pz9ETaceA06NvD/NNtjJf+J2dOmAteOQZ9K72PkyP04x29bz76d7dvdjLOD+i1tw8/vx2F3G6c+K/HeXW+iwoAn0cNTPwfnfNe3sPcbZr3MeZpqBW9TIYQIjwT8/MFU/Hzu7ejbLCe/LJWRtm0ypi5viIsvbpij/2N79uyxlwKw+x/8sHwVDleog8qZfO9SsS1+CX7bWhoxNctl9urld5f8ipTKJ6JaNn57FSpUsJdyR7T+9+5J+Al//fMqkg7uAkpcjxMbNUVQY26Zskj69wMkp23A/n0xOFLsBFQp7z/tUdZsxZy33sCMdRVw7on7sPDTmfjkmzlYuOgH/PTrX9hRojYaxvj/n9v950J89unnmP39fLPdD0tXI6FUXTT2bAccwtZlX2PGZ3GYNXchfvjBt+32cvXRqKZ1kbauxA9/H0DM6WehvnMzJcdj6psT8fVPfyGt9hmoy0t1cCuWfz0Dn3w9C/MWWPtY/BN+/Wcfqp1UH1Wc+DIbX90+wddzfMf79a89KHfiHnz/6gf4erN1jk1c/+jTdmB53HR8Emftd6G1359+xV+JxVH75BiUKWJvkwlXe7n2lfzXQnziaZP087Q5tHU5vp7xCeLmzPNtw/P4cweKH98QMa7baOt3b+ONGX+hQmxt7P5+BqZ+9q2vftY+d1Woj4Y1IuOYmldE6znZtno15iXZb1AW17avj//Vq4a2rtI0LQlLk9JQs1plXNSwNjodVwLlDh3Epv1pSKtUA91ODS2jru+a/IQEel/s/st3L1vl3/Ln4rTjrHXblyPuY9e15b2UehzOqFvJfN+QthtrF36Gzz6fjTnzffcnn7FDx1n3ubOZ917nNius57C49zm0npMXJ+LHlJNxRrm1mDn1I+vY1j7Ns3EIx51SF5X4I5kwB2+Pm4GfTMUPIGGFb58rre+dVX9d+j7Oqu/6hXHqkP5crMS/RWqg4pppeHvGMuyv73pePaTfu+eelhEKEErbRPq8CwjhPBv53uIbP2kgBg70lSc+Wp0+Ipu8ZjW22MvHFk3Q+2VaOyciLp5WVqD7DV2iOvVCk15j0B1TMTFQbK5DjVZo1xKYen8YsbPb1mMDYtGuRVa1b4L211r7XZTZrTmUelVp0c46wlTcFzA2WgghcsIOrF8ONI8JdTA3M7VimgPL16dPiRQ5tmHWqP/Da6++hv8bFgdvguLkn9/DwOGv4bXhA/Hez14T6CbEDbO+++ZbePKJmfjHXltQSfy3F/7bsw4o9QBOOfPabAY/T0CTMz8Ep/hN2/ME/vnX+l5OSLME3eTP8AfqIrbDBbigbTPUKroVq2ZPxtQVrva2OtLTPl2MbUXrowW3Oz8W9UvuwDpruxmr3GmfkhE/fRwmfrcKSaUbIvZ8bnsBYk8qjr07g/huJ6/DN5O/wcaDVXH2lT3Rxr5N4z+biDlrDqDaaW3MPtqcVhVpm5djxuR5fpmVk1dMxSSrbhsP1UKztjxeG5xSZiPiJi6y7i4PaVsw5913rf3uRbXT7f02Lo+kNXPw7sSF4d3faz7DuzOtNinZwNd2Vps0rpyCxK0Z55m8YgbGfTAHq5JKo+HZvrZoc2YtlNi+CnMmvo05mTqGB7BqxiR8u6Uamreztm/bFDWL7sCquA/xTW6m8Cm0lESN+rVwSv16aH5GYzRvVNtaroUTyxdFwzNaYfR1HXDtufXRPPYc3NXxOJxofytUKp7a2lzXOhxzqN7YXD+Ws+tY73cstO4Z69qmHGc/E23Q7IQS2JFI92Ibc7+9jc+WbMTh45qijfl+GzStcQA7nKQJyfGY8Rbv9SSUPinWd4z05/BdvP1dZvWQun0u3pu8FGjQ3mwfW78kkjcvxtSPf/YlYavcGK25vh4rXhp1Wvrq3frUivw0M6znRLsODew6nHU89v08FZ+tysGMyaG0TTTOuxBSIFydjy0skeaXhKljZnfepr0x5trFGHn/SCy+dgx6u1Ngh0UIxzL4xPbiESOyELVV0OVZxhRb9erBfQVLPuXiv/VYbHUO6uXYFBtCvWp0wTA7NrobzzHEeGUhhBAFm2q1x6BG2fqW9nkJa36fjSxs5BZ78OfvtyDR0lhFK4xB06Zn2OvDZGM8ElvcgduvtjqRzZuhmdVB7n5HdzQtm4KNc2e7pr0qhzrtbsHdN3VBG27XvA2u7MlETylYF/+HvY3V3130Eb5Zn4JKza9zbdsMbS7pievaBnCvYod78gzEJ1VCs2tvQXvX2Eyxmk1xZa/b0d0SHtxH7IU90eVUqyO/ayXinT5xSjy+mLsRKZWb4brbuuOCljye1Ym++nZc17hUps7w1rlfYvkuHqu3335vOb8Oim9fioVr7A1DYNWqtdb+66B1j4t8bWe1SZeevdGzjX2epm7rkFLRqlvvW9DF6tSb453fHbf3ugh1Su7G8q+9YnurJdbb45br7X22vAg9L22KskjGH78q1CAzu/DKe3Nx+3s/43fr3dbFC63luRi0qgyuansckLgMT735LW5/83Pc/vl/CHc28dK1GlvXrCGqMUKkXB1z/VjqV7bu9d//wI60smh26ZX2fe677+7ucqrvyxZrv5xh3W+W8Lywd8YzZm93WWNukYL4uDlYd5D35N245RJLIJrrzuewNy6yhOvuZV9joWdEJnlTEup3vx1X2vdUm8tv8j07m+OxlNbw0rXQ2FrfsCq9QEqhWgPfdo1rBfYa8D0XVj073pJRh7ZdcMstF6FGDnJAZ982UTrvQkjuhW9aAua+9BD69OkTsDzxWU7mbGiOXq+/jtcDlbua29sUVjInnMosbHdifQ4Ho/0J5Vg2jth+MSvLKcUv9+OzxBpRHW2hGUq9KH55fsZSfl8WAl8IIUKhKuo1A5Yl5NzvaEvCMqBZPWtPkaYGOvV7CnffczeeGtwFJ9hrHcqefTOGD7wbdw8cjpvP9rqGnYAug63v3nkHHnv88rCtOfmNCjFt0bT5gz735v1zsCUr5btnCRL307LYFjVOtkpOvWBLn4pWZ3ratWgdxJ5hXemDm7DRuWViYnHROZ6rb4n042lA2r3DtsBuxfKVVk+1aiyuPD8E74IjO/DzR5YwoOi9+mZc4PlK43YXob6navXrcOQ5GYnbfe+xdhU2HiyOhq0vQC1PD7FWhxaWLHWzEctX7bY+OBOtPccqe3pD1KKL9qbQZ+ktb1wVt2HtCpcVy6K4PQVVyooVQeuGsk3RoXElSyH8gXjnXAxlcWprCl0X9erjBGufh/bnwPJ2zHIQu3hZqjVCz6aVcYLV/vuSUxHJFvS5qiZj3cqNftKweMnivoW0eCz/MwXFG5yP7qd7bmSHlHisWH8IxU9qnen+573QtM2pqIQd+ON3jwI8oYVn+7JoWI/PZwoOhH2SWxH/l9VYVc9ER289rfu0baMgdc+CbNsmX5x3wSCXwjcZy94ZgclrssoYISKNL4uzJVppyQwl8VSEaHJl4KzSmWmC3hSadv2Cit/j6iEWG7A+VNfoIIRcLzvj9bQBsZh6v8SvECKnxKBBixgc/PYXrM1RrpO1+OXbgyjZqJ61pyhQ6USc2+pcnOgK/cqgBGo0PRfnNq2RPm2gH/xu+w5oGPC7hZiSpex4Z0v85iZ5Zo2aHnHoo1IFym+XwLQ4tGsdln8XhxnTJ2Lsa6/htdETLdFqf2jYikTrfeladUMYIDmAdXGTMW9zUTTsfB0uqGN3iN2kpWDLmoX4ZuYMfPiudbzXRuPFb/39fbduZwVqoFagUY+i3n3uxm6agLfMw2svvogX3WXUHEsWU8OHLnzrtOmAxhVTsHH223hx7ETELVmH3QftDy2S9rKvGaRuFjWrm1EDJPr1KaqhZiYhUAnlOLCRPsAgsicZk79dhk2pZVHf+n144c42uLdWZINASzc/D7ExpbH716kYPfptTP0uHlvcLgZbtyLJejZr1KpvrwjAriSrpllsE1MTvrGl/3zvbSpVP95eyiDQMxsaWT+3xYoG/OXNkmzbJl+cd8EgV8I38atRGLfUauozbsTw4cMDln4dQwt4FyGyLQ4jTBbna9GkRhf0ZPzr/SG4FUeC9KzSWbk8u6Cl1VhZ5wWuX416qIvFmL80K8G6EvMYx9w6i1ypYdaL2VfHBIkbFkKIUGjYogtiEiYhbqmrZx4iB5fEYVJCDG7oEEoOaJEr9m23c4NUR8mscnGVqmgL35+wPzcTLGcSh26Ko7SdL2vL/Hcx+p0ZmPP7f0gpXg4nndEardu1CZjspmjxrPbpUBQVa1ZEaavDuunP9aYT7Afj/8a+hg+/XIq/9xxC6ZqnosW57XHR6QHcpa16OlbWUChd52xfPGGgclagYYAglG2MLnf0xe3/i7XaYS9WLZiBt197F/Ny7lghIsjurRvw0JtfYvh3f2Jfsepoe+UpuCiX5jM/itZCm+vvxt3XXYCmNaxn5Ndv8KF1z85wx8ZbFC+ZU3eMvCW05zZEQmwbkT25umVT0+xUUyXKoGLFigFLpbLhj2yIYOxE3IsjsbhlfwywpwgKKfFUBKnSeYAvjvfFKVhvr8s5TXBtpumZ/Fk57j4zHdG12cQxR7ZeQgiRDY2uQO8LgJmvv4OV++11obB/Jd55fSZwQW9c0cheJ6LHvk0wQxPFqiHrHM0VUCoS3ZWdWwNaETdu5qhsRVSliT8tHguW7kDxOheg97234LrLr8RFJsauLvwN7aVQ2hKgyZv+hr/zbyBKoNrZPXFl80pIXhOHD2f7u0RuXbwY61IY/9cXvXt2x5WX+OIjm9b0bxVfX30btgZK/JSS4olO9NUv5VBZnGriDgOU+uG6DhRHpVMY79wbfXu2Qa3iO/DzF3NMm1YsT3fPbdgSJOuaz1pdFTW9/v0iApTCaex2Wv3+Zb//jikMjy5aCTXD99rNltK1muGi625H39suQ+PyKVg3+wvE0wujrM8rY8vGLGKzK1c0bu3btgSJB0zYCnOX1Mhs6YwcxVDcUlfJWzchUIKoAweDJKULgaBtky/Ou2AQybEaEWV8Ls6x6P+gO4uzIx5DtMLmmiro8iBdi6di6hJ7FdkWh8GZXJpXYuz9U33WaXuNF5/1lfHAmbNBrxzX0TfH77OhZK0OXC/OE5zJpTl+rLVfqx2vlLVFCJFTyqPd7X0Ru20qHnpmJtaHIn73r8fMZx7C1G3W70+vdhGdjk8EocwJMMbLwz9h26ZE7AtgoE87uAc7N83HbjOWfwKK5UYAJ63B0r88yWuSf8YCZmqu3hCN6W+4Y4dx2SxZ9TjTWU1n/Qpw9scMGqJZQ2uL7b/imxAtO7XOvw4XnexziXzPlcU1MYnS2RLenDImnWT8vNJf4VY9sY5VpxT8sWS5x2p8COvm/OyZTaMhGtS1lPKWX7EoAlbZQwf92614zVg0Zn1T9hnhX5pxw0UPYe2iOdjidUdPjsdcxhs7bSwiTFlcdcP/MOGWDnj7ls64jYN2//2Lxbnxjti9wz8Rmef6o6J1/zMoPc26/jxOxeZoWsu6T/6cFyB7t03ppmhoabtDfy8KsE0y4hf+gd1Fq6LhqdGM5aiPOhzgCvRcJC32/RaES3Ztky/Ou2Ag4ZvvyJxpuSOn4rHEWrcRi4Fre6KLJwtyurWzR7guz0GOZX8aFNu1OBN24qiMch/w8mwMs63TwWjSi4mn6trZoDPKfRiD2bN7BxXNmQhSL8bzuvfb8X5gzOxhmdpRCCHCIqYLho7pi+bLR+O26/tjYhZhG3tXx2Hk3bdh9PLm6DtmKDrm0e/PkSNHju1SrS2qlixlLS/A9j86Ydna7Zm22bV2MJb98RIOHLHaq1Qf1D3e//OwSoXi2PTpG5jwzY9Y9ssyLJv/Md56Yy42H6mIMzu1RhVuU+1E1C5zBPt++wQfzfFt9+M3E/Dq55tQqpz//mp36oozK+3Hhm9ex1vTZuNH7vOXHzH7kwn4YP5/ftv6Shmc1vVmXFi3FHb98gHemrPZrD/xhBjrdQMWvvclFph9LMDHb76JFQeruL5rldrt0P6kUkjdMBvjx2ds++V7b+DL5Kqo4d7WKqd2PB+1S+3CssmvYvwXC3znbJUF33yECa9/jBX2dvtXfoxXX3gB4wPW2VdWffoyXp/gHNPXJgv/PYIyDc5EA25TqgW6XlAbpXYuwwevj8eX8+3t5nxktfHX2HCkNi682m5jlbCK9cdTdmD0m1/g6d8tkWa/n/iJ1dZ/bcbqv/7CnDnfY9C0jVhrbx9on8FLDdSobL3uXIGvvreu4eJPMXflEfy34F28/PZHmL3Yd1357Hzx2z4ciTkNzSrwe2XQouuFqF3Ce78twNcfvIVPrX0cOVIKLS4LsM3i2fjozdfx9T/WM3VBd7Su4tQlGsWqQ4cWqFiEdXg94xnnfTp+BYodX8Z/+y1z8dZLL+DVT1Ziv3u9q2TfNlmf9zfrgTodr0Gb7JMFFHqKpKSkWHdtzkj48glf1uYWvfD6HYGzLYeyTVgsH4c+byyzFpj5uZf1N3IkJiaiWjXFJAshhAgDqyM+8dmhGL90L0rWaIJ2Hc5Cw/pNUBcbsHLdWvwydz5WbjuI8i1uxdBBPdE8exeWbNm82X8iEXaO8prjj4+M21zU//em7cG29bOxZdcmFK12E5rW9Q/2PZj4GzYlHUDJ8megZo1SgZN+ZctWzHlrIpZXuQh9W+7DjG8XY+OuQ2DMb9nqDdGqcxc0q25vSrYvx4zP52HdDp8lp2zNpujQ9XRs+ehDLEcz9LzjAqRH3x7ciuWzvsGPf29FMi3W1j5LV66FM8+/DG04r+iKqXjx2yQ0u/52XOBkS0vbgnnvf4ifmRT6nOtwS7tKWPfdTHy9YguSecjilVCn1UW4ssyPGP3tRtS58EF0P933VVqI1i34AnOXb8QOHq94WdRs0AqXdC6O2aO+wcZ6F+HBq13xR0lrsfDbhVi6cQcO0RLL+pWtivrNOqJDy1rGqp2yagbeiVuHsi174hYzDVNGezn72rp0Kr5cvAU7UnxtUrx0VdQ5+2JcbO/DgfOMfv3NUqt9U3zHM/Vrjo7nxaKWa8Ot372Nicsq4qIHu8M/Wso+tred8zlRe07++x1Tft6VwwzNxdD07HPQ8rgwE10lr0Lc5G+xyjwjZdH0st5of3gOpn0fj617fdcfJcuiVqMOuLhjY1R1m+ns++3XTTtgbhX7GWv7vy5oWtm3CZK3YPG3X2Ppev9tml/QAbHHu++meEx98RskNe+J28/33AnmufJ/Nnz3FPyftWD7sJ7xuK9+xNrtyeY+LV61Dlq0uxQNN3zov4+EeXh78s84UL8Lbru8MRjB7L13U9aE2DZhnvees24M6bzzO+E8GxK+LiR8hRBC5JS9GxZj9ow4xC1fhrUbfD6A5etanY5mXdDlyo6IrRs55+ZNmzbZSzkjEkK5wAjfPGErvnt7kiXkLsQDV2WTlKKgkrYc017+DhtP7owHuppJU3PBMdBeEUZ91MLBljlvYPKvJXD2jbehnXswzMXW79/BJEv4XvhAN8+gTdYUKVLEXsoZuf3+0SKcZ0OuzkIIIUQEKF83FpffPxRjx89Mnxt95vixGHr/5RETvY7rW7FigS0szufZldwS7PiiELPmXxPjG5kEOb4pX4qXyjrlmBCFix1YtzEZKFkTMUFEL9m6Y7e1TelsEvJlJtBvfaASjOw+LwxI+AohhBAFAHeHpESJDIdcp7Pi/ty9LhqlePHiAderRL/tj0o5vBlzFq1BapEqaHBKxcDbhFP+WIfN1mtM3QaBP1dRKYRl34rZWJ54BKXqNfLFrQcqh1dh3WbrNebE4NvksDgEWucm2PrCgISvEEIIkc/xdkRKly7t13Fxlt3roon7+Cp2YcMEWl+gyn9YOOk9TJ75DRYuW47lVln83Qy898ZkLN9VGjXP7Yxzc5gY6L8FUzFjgbXPBTPwzldrcahyC7Q7LfC2KioFuqz6DG9Mmoq47xabZ2j5soX4ZvI7eOPbjUgpfyo6XXCy//ZbFmLqzIVmuxnj47D2UCW0OLeJ/zZRKL6fLP/3Dt73hQUJXyGEECKfEqxDUqZMGZQqxWzFmT8nzvpQS1paWsiF1mYeO9BnOSnhHj9/FqctA31WkEp5VD+hBPZv+sMSvHMwxyoLf92I/eUbodVVPdCjRfUA3wmtlCyRio0/W/v8eSMO1jwDXbu1QfUA26kELoXjOTlGSqXjUCMtEetWLDTP0BxLAP+xowhOOLMjrut5EU4q6dm+dAmkrl9sttuYehzOuKQ72tT0bBOgOL/fuS0O7mXi/bwwoORWLpQ4QAghRH4hUCfEgcupqanm/5bTAXLI6nu5hbG9VapU8XO1zi07duxA1aqaZ0OIrNBzInKCN2GV+72z7H0lWX0vv6HkVkIIIUQhwhGvfHUK42wpQkuWLJm+zhHBXquA+31OC8VupUqVjPgN9LmKioqKSv4pwf4X8DWr4vyvKYzI4utCFl8hhBD5AXenw9sR4at7+fDhw8YatG/fPhw6ZM/zKIQQQngoWrSoGSwtV64cKlasaAYy3RZf97L7lbiX8xPh6LeoC9/Er4ZhyMyNwBk3YvgNEZir7bcJGDgp3lqQ8BVCCFH4cEQtcQtc59UpJCkpCdu3b0eFChWMG2T58uWNJVgIIYTwwsHRvXv3msHSPXv2oHr16kYAE0f4ekWvW/C6l/ML+Ur4Ii0Bc18egclrku0VkaAsmt40GPecG1mRKuErhBDiaOIIWge3yHWWncKOS3JyMmrXrp3ecRFCCCFCgQOn//77L8qWLWsGTh3R6xTiXnbwvj/ahKPfoh/jWzQGHe4fgB6nlLVX5J46lw2IuOgVQggh8hOO4CVe0csOC0XvKaecItErhBAibPi/g/9D+L+E/1O8/2cc3MsFnehbfMMhivG7oSCLrxBCiKNFoI6G0wFxF8b0btiwAfXr15foFUIIkSsoetetW4e6deumx/x6C3FeiXv5aJO/LL5CCCGEiAgUvuykMKZXolcIIURu4f8S/k9xrL6FGQlfIYQQIh/itvK6C93SNJ+nEEKISMH/KfzfEuh/DkthQcJXCCGEyEcE6mS4OyAHDx402ZuFEEKISMD/Kfzf4v5f4yXQuoKGhK8QQghxlPF2KNydD+czZzktLU1TFgkhhIgY/J/C/y2B/ue41zl43xcUJHyFEEKIfE6wzocQQggRKQr7/5pcZXVO/GoYhszcCJxxI4bf0NRemwt+m4CBk+KtBWV1FkIIcezgdDLcr07hKLwzEs9XZnRu3jyv/0MKIYQozCxbtsy4PBctWtRkbeYrCwmU3Tk/ZXYOlVwJX6QlYO7LIzB5TbK9IhKURfO7nkKvZpGb9zdUJHyFEEIcDdyC13l1hK7z6pSNGzdK+AohhIgoFL4NGjRIF7xuAVxYhG/uXJ2LxqDD/QPQ45RIidSjJ3qFEEKI/IAjelmc986rsyyEEEJEmqz+9zjvCzK5s/gWMmTxFUIIcTQI1MFwitvay/Lvv//K4iuEECKi0OJ78skn+1l83dZedyHOa0FCya2EEEKIowjFbaiEs60QQggRDoX9/5GErxBCCJFPcXcsJHqFEEJEm8L8f0fCVwghhMjHsOMh0SuEECKvKKz/dyR8hRBCiHxAKJ0MCWAhhBDRorD/H5LwFUIIIYQQQghRqFFWZxdHO6tzQkICdu/ejcOHD9trhBBCFHac0XP3KDqXWZjF2Xl1SoUKFY6JrM5JSUl4+umnzf/l+++/H6VLl7Y/EUKIwsG+ffvMa7ly5czr0YRZnevXr49ixYplmdmZFNTMzhK+Lo6m8KXo5c1z/PHHo3jx4vZaIYQQhR2v8HVEr1fwclCUr+vWrStwwnfTpk3o378/2rRpgz59+piOVSD++usvPPTQQ7j55ptx3nnnGeFbs2ZNCV8hRKHj4MGDGDNmDLZv346HH34YVapUsT85OjjCl0LXK34d0esVvM5rQUGuzvkEWnoleoUQQjg4QrgwQPFKsb58+XLs3LnTXpuZ3377zbyeccYZphP4wgsvYODAgRK9QohCR8mSJXHbbbeZ5eeffz7L38ajSWH6XyThm0/gSL5ErxBCiMJIiRIl0LZtW/z555/GqhuI5ORkLFmyBLGxsahbt669VgghCi8c4KO1l+Rn8VtYkPAVQgghRNQ55ZRT0KBBA/zwww8Bc1n8888/WLp0Kc455xwjlIUQ4lhA4jfvkPAVQgghRNRh565Zs2b4+eefsXXrVnutD7rS/fTTTzjhhBNw5plnmnUpKSl44okn8Prrr5v3DtyWArlv374mDrhLly6ms8hcGWTLli3o2bMnpk6dat477Nq1C7179zbbpqam2mthOpl33HFH+vbcD7fp2rWrsVJfd911+Prrr81nQggRDfj7+Mgjj6BUqVJ4+eWXTQikiDwSvkIIIYSIOkyW0qFDByN6//jjD3utjz179uCXX35BixYtULVqVXttZih6v/zySxP3Swvy8OHDzfL69esxYMAAk0SrevXqOO2007By5Uojnh02b96Mv//+G6tWrTIi2IFCme8puPl97odimJ1Qxhi3b98e//77r721EEJEh0qVKuGBBx4wyy+99JLEbxSQ8BVCCCFEnlCvXj00btwYP/74o5/VlYL0999/NxbWYBmfCQXu+PHj0a9fP9xzzz0mHphWX1qGy5cvj9mzZxs3aSbHWrt2rZ/LIC3Np59+ujkuBa4Dj1unTh2TYDI+Pt5ML9KrVy+0bt3a7J9ZqG+66SZ7ayGEiB5u8fvqq6/6Dd6J3CPhK4QQQog8oWLFisaqy+zNjrsz430XLFhgrLQnnXSSWRcMukNzHmMKUvc0GpyKsGnTpmaqJ3YUTz31VOzdu9e8J0ycRUvvpZdeioYNG6Znj+a2tAzTBZvzaFauXNnMH0wxzKmjHBRzLITIK5jslgOA9IQ5dOiQvVZEAglfIYQQQuQZrVq1MqKUQpTQKstpjiiIKYyzgvNd0pJ75ZVXGuuwU9q1a4cPP/zQWHIPHDiAWrVqGcvyihUrjHs0XZUpaGnxbdKkiTk2xTCPzUzTdHOmkKal+PLLL8fIkSNx66234osvvjB1FUKIvIAeJy+++KL5beLc5/RkEZFDwlcIIYQQeQbdiikwFy5caCyua9asMYK2TZs29hZZQ5HK5FOjRo3KVO69916ULVvWFApfxhKzI0mxTDdrWnRpWd6wYYOxODPul9YVJtUiZcqUMfuYOHGiEeKvvPIKrr/+epNMSwghookjev/77z88+uijxpNFRJZiQ4YMGWovH/Ps37/f/LM8Gmzbts2MUBdmGKTPYH2OxmfnznasQXcWZi5lfBmtEflxTmdmOh09erTpLDZq1AhFixaucbNZs2ZhypQppkNeunRpe+3RJ7/WS7jZhXW//I6/t2wxiZLCLZu3bPZ73ZLA9QdQOqYSeMVpsXQXJmIqyP8v6DZMwctMyZy66JtvvjGWXrohu12K6eJHcUwXZG5HaKmliO3Ro4dxWWZcrrscd9xx6THC3NfMmTPNszNnzhwTs3vyyScbccv5grktrb2MqWOcsPObRssv60N36ksuucTMO0xXbFqW9QwKIaKBW/QyZ8HREL3s5zG7NH8D+XvI10CFeF8LCrL4FlDYaWBmy+eee85knmRWSxZmoKSIKqzQbc05V2+hcGS7FEQY4+aOJ8uPsI6B5t7MLR988IG5fuPGjfNLdhMIdvqnT59utuf3hMgf7Me2jf/i31yWTf9uMsX3fhsKc0oTxtRSmFL8Mt72/PPPN4I0O5o3b27cmRcvXmx+D7KCQpgZnhctWoQdO3aYLNCEQpoxwEywxcFGWpAdsUyx7d4vM0xTANPdmYPjQggRafKD6D1WkMXXRUGx+PIfOEUeR73pMsZ4qRNPPNHEAVCYMIYpP45K09LrzNOYU4svrY3sJHHknW5xPFensCPDTk6olkjGfDEmjO2eXVxZtOH1Ovfcc3HWWWflS2svYRtxKhJapCNp7eVgBu9/xtvxvuBoYzA4GsmO8sGDBxETE2Oue6RgVlm6PdKyFInnJ1L3V6TrJaJBBZxg/f7wNygnhR4UzmtGOR7lbAHmWHqdUtAtvoQil5bUuLg487+Lc+V6n5NAFl/+xnP92LFjjXWcgpWdRVqCJ0yYYIQqLbmE82Hy2aHbMhNfXXjhheb3lRYK/oZMnjzZ/F+6+uqrjQs0+eqrr0zW6JIlS5rfJf4+cb8UvxTnhc3TRQhxdMlPolcWX5Ev+f77741I53QLt912m0nq0bFjRxOHdPfddxu3rcIOhT4tBu5Ct7espsHwwsQB7BRFw4opwoPXjT+ynMfTbW3xwgQ4/JxZXfM7ur+ECA6tvRxIo5fO2WefbQayQoG/FZxaaMiQIUY4P/zwwyYBDD1A+D/APajKDpkzOMZjuAeO6tevb4Q2rcDuY3M9xfDQoUPNlEncL/+39u7dO6z/L0IIkR0cgOOURRS9jz32mCy9eYCEbwGDnQQ+IDVr1kwf1RaioEOLDq1cdDukFScQdOHn5w0aNJDVRYhCAGNuGTtLgRlIVFKoPv7442YeXTcUzZ06dcLbb79tvs/BYC5ToHozoDrHYPywG1rMaQnm/t2CmAmxaH1hTDC/995776Fr167GeiyEEJGEniV33XUXnn76adOvF9GniCWksg6SOYZITEw8aqMtnEeQsUvZQesRR6CZkZIW3xo1atifBIbWsV9//RXffvutOT92Ljiifdlll/kJZwpqbsNtKTDoDkYhcsUVV6S7n3EbuoDRoky3s08++cRk4uzZs2f6qDpFC2OPOXci4zXZQWnZsiW6dOliXFlfe+01811m1ZwxYwY2btxoRIz3WMGg2xk7K+5juuEx33//feOu4W4fttvHH39sMnwyKcq0adOMu6AbWpE5fQU7QRzxZ8IVWiBZb7rA0w35oosuSu8AMVlXsPNh5+mqq67yc52nyyrd+mgFpKse2/F///ufSbziblt23hx4/WjVoHuv8z26CHL/bFN3ezEJEl3J77zzTnMd2Wlj3blPdtxYR8clxTk/9/Wm5eOaa64JGmfnPl92OgmvB9uSngd0C+Q+uR3Pm26BdEnPTqTyfl6/fr25/h999FH6/eJl3rx5+O6770wdee8xQ6vTVoHaiefduXNn81w55+3Ul/cPRfTPP/+M2rVrm+vO9mL7ub0mWK93333XuEHefPPN5jW7Z8ppp2D3F9veaUfew5999pl5XhjjzZhEdtDdVivnurrrRWsy25runfT+4HPGDLRMxOPtoGf1THI51N8IkRVbsGTmEutvzuA1cMP3R47E4Oz/tcBx1jLvDRb+jvGV1zKU/xdCCCFEqCxbtsz8/2e/jX0BvrKwD+W8Ov0p72tBQTG+LgpCjC9vPHa+Kcg4vQKXOUoU6MZj54mj1uxY80Zm1kq+rl692mS0pNBxXEYpODhhP+OYGDPMDjbdSinkGBtFYUQxwXXsHDPOmDFZ7s4xP6NIYOeax6JrGeN52UmnsGWnjR147odJRZhQhNvwnChCKKIpBPg+GE6ML8VioE45H1S2B9uGAoNxc2wbdhTZsadLOM+HgpjnTlHAdTxvbsv4MX6P58EpNtgWjL2lFYHJVNgerCOPw+2CnQ8FFs+Hx+J7Cm5aDlg3CkIKVwpOimxeE6dt+d4R9Lx+FHoUalx/wQUXmM4uRwgpVHgM7scRqhTWHBBx5qts3769yWDKddw3j8PYDV4fxqzxPqCbPAUYz5uCkfV1Wz/cOOfrjtHm9eCgDe8HHt+JAaZXAo/JeDuKuazgeVAs8p6hWGSWVV5ft4Djs8lBAz4jHICgYOW977QVrwvbl/ct25d14LXlfeD2jnDqy894/994441GBPL+9sbScvBk0qRJZpmil20XyjPFOmR1f9G1ie3I6/bDDz8YN0sOEDBen/ecc614fsRbLw6ScPCH++Y15j3He5znynuKx3GeoeyeSd7Hof5GiKwoiTLlretuZxYOt/C+dl4zSk1UrVAatIP6hHDhivEVQgiRvzgWYnwlfF0UlORW7BCzc0prDzunFEHsnLKz7b4BKQZoGaMYoTWNHau6desascTv0BrIZcKOFLehVZAdccZK8XN2gNn55TEdccZtu3fv7ueWwU44E4XwHBgLRXdU7odWLkc4O8KJnW5a3BiXy20ckULrGuuT1WTdjvBloSXMXbgvChy2BUU224bCjwKKmYApwpzpMthWFCAUpEx4QhFAaz8f9Llz55pBAFrnKBS4X6cNKFTYho5Azup8/vnnn/TzYf2YFZSxaRSNFB8UcNwXjxlI+PL60YpMEci6cFvun/vkeVH8OdeQ150CiefDe4ODEjwGv8Przn0TbssfNgpqugDScst98nrxXNlWwX7EgglfDsLQ8kyrL62w/Jz742AGhZgzUBAMR/hSgPIa8LrxWnE/DhSrPA4t5HSLZj3cwpfJISgceX35PacOPG/Wm9vxvJz6UhzyujsCkbgFJtuVFnh+5/bbbzf1IaE8U87ASrD7y2lH3iO8ThxY4TXgs8L9cMSVAwdOu3mFL+8Vlm7dupn7wLnnmOmWzxAHYLhdKM9kOL8RIiuKo4z1DPA5iFwpg2KWyCUSvkIIIaKNkluJfAsFxoABA4zbLjvBtExxOhha+hwoDiny3K6exBEV7FzTekRo+WNny4Hbs4PMz937JBR9jhBwoFCkCx5daoO5yjqws87OtQM79+y4U6xSLIQCLWQUDe5C4UNYd4o6CnMKPFpqaaWmGyjbIyvY0ee5UDw6+3Og2OPACMWCm0DnQ5HB86HIIbQCUpxRxLDjSlhPio9g8Prxh4fn6hWOPB7FOK2jFNQOFDy0Lrq352AAj89z47G5Da3GrAvXOfA7biEYDhRv7utOUcrj8vzZDqFCt2Pem7SgcyCK0FrJa+iIskDwMw48uO9zDoDwXqX4dq6DA6+Pe1s3vN8pGAkHHNz3ejjPVHYEuscomCk0KdB5vwSC14/Pq9sizmvHffE8nec1lGcykucjckigYCMFIAkhhBARR8K3AEORwg4rs1rSWkMX1zfffNN09Ak7wFweMWKE33y3nPeXVjZaDRxBQHFC6xTjYMeMGYNnnnkm6DypFFHeOEJ21Cl2WLKDgtQrOtiZZweblr9QoCh3sjk7xX1sdvQvvvhiI+4Y90kXzlAsJBRZFIO0pg8ePNiv3Z599llTP56rG1rRvOfDQQT3oAGFIY8/ZcoUPP/880bIecWYF343WJvyeBRJFIfOMQjb0bs9xTWtpI4ApKihcOL94lxnWgcdQR4uPCZHCN1QTHGQgHXL7jzd8HsU7hRctJgT1pPWTMawZjVwQcs73Xbff/99DB8+3Mxx7ezDTaA2cuA1Y3twXxxMYRu7CeeZyg6Kde+ABuG9w324r6sXfk7LMEMUXnrpJTz11FPGq8BNKM9kJM/n2OYAdlj3Ke/V0MoO6xsWqVuw5Ou5WOO+1ElrMO+bn7Al6ymthRBCCBEmEr6FAHaeKayYTImWTVpxHChyOEeh1zrKcvnllxtxwvjMUaNGmbhPdpZpTWZSIIrFQDjuD14osEKxGObUqhguFOfOscJ1YacFOlCbsdCaHC4UH0xORLdZLtO9lAKY8bd5Da8dhe+gQYPMXMhMCvXyyy+bWOJwrLPRgpZsWovpys2BCCadohjk+kBQsFPwsj1pKeZ9yGvE+HMOSgQi0P1L+F1+hwMKjAsPNBgQyjMVClk9B3ymaZUPBO8Znivd92ntpxs1z5Wu815CeSYjdT7HNjvw59KlJs46tPKn9Q2LNOt5O7ILqxYuxDqKX0v0zp37B3YdScUBn8ODEEIIISJE3igQkSfQCsp4UsdFlJYtCge66HqtoywUd7SgMeaRlh9mA2YsIF0jaV0LJhoCwWNRdNNClB9gG3z++efGXZMxj07G2uyg4GCbUPAwxjJQu7GdcwIFCMUbU9ffe++9RpR88cUXQV1JKfbYnoHalPVjXDivNy3wOYFWYLp/07pHIcwOOWNpjza01vOa0VrPOFO+Mr41WJIlWuEZF8xYaFormemZ58N49WDiMRi8JhSR3Bc9BWhVdYvfUJ+pUOD18wprDjzQIkixGSjWndsvtEQSz+uBBx4wcdW8hjy217IbyjMZyfM5tqmFlpdfbgYKQistrW9YlKqNlhe0sJa347eFc/Ddoj+wu0RNnNm+NU7MOsG9EEIIIcJEwreAQZFE65bjzuyGbp2MC3TcThkrSLddb+fdC7MP0zrq7jizA+4kRAoFChV2oDnlzNG2GvJcFy1aZKzXtFw7U+9w+hdv3ejG6Y6RpRhk7CWtfd5Y3tzAtnFDN1fGZPJ6MUY7EBRu/IwWT2+9afVjBmDGF7PO4eBMjeJAYcNkR7wHsnKvzUvowk/xx2l4WD+2RTDYhnwumDzK7TpM92gmaggX7oPilwMctKpSfDuE+kw5eO8vNxT0dOl2w2eYFvhg15X3EYU+RbH7c7YBQxXchPJMhns+IgpY4vfsVg1Q7uAe7DlYAQ3PbYl6MrILIYQQEUdZnV3QSni03PpCzepMIcRYPgqCtWvXmk4wO/hcR4HE5D/MIkuxQBdGxipSBLKTzY4tj8Pv8fs8V8bbOvGCtDRxG2aQZTZhdpZpLXKmDuKxvZmHHZypXmiNYlIdQmsT4wSZwdZJ9uTNCuxAkUoXbedYwXC2ozWU14vCxin8jFZB1n/mzJnGjZdWK54nRR0FANvEaWeeN/fF71HsMIM1P2OCJWYkZgZnnj+34/7pestkWcx4zTbg+lDP56OPPjJuuBScvAa0rrItKfAo6tg23rblQESgNuX1pKWY4pmZfR2LHK+xO/uvg3PdCI/HeF7GglOQsVDg8/5hHThPcTAhHeh8eZ60EtPN1mt5drI1e+vjJdB2jgjnvco6szjuyU492D5sK54/RR+vHz/jOfFazZ8/33zGffH7tOZmVV93+1FY0trJARDeBxTV9IAI9ZkirEug+8t5DniujPXme54/60wvBd7b7jmg3fXiteHxuF++8tqyjnxeea4Usc65hfJMsq6hno+IEsnrsXjBSuwsVgEViu3Bln8TUbJmHVQu5RvEI3x1F/4uhfL/QgghhAgV9nULe1ZnCV8XBUH4svNOcctONQULkzAxsy9vUMbk0k2ZHX3iuNbSdZSdbopbdoBpZaJwYQeZLpMUZtwvBQGtW7QmUjSyY8xOcijClzc+LWTMossONI9F8chONa2JjBt25i+NhPBlHbl/d2FnncdxOux0KXRcXSlcaE3jOdLKxc8pMCgWeI7cJ8+Lx3dEDwUU24OFwor3BxMv8TzZtoGEoIP3fChIeGynXSjqmHyL87ByX4Halm1K6zPvC7YpXdJZV9aLmZ55fo5QJG6B5F7vFb681pz2hut4bmw3imjGdHqTObkJdL5ZCclAgjYQwbajyKP1s0uXLuZaOTj1cAtfXhPeE2xz3uN8BigeneRW4Qpf1oP75Xny2WHb8x7itQjlmSLB7i9aYVl/bsspnDiYwvcckOD58Dq4vS+89eLzz3uR+2XhbweneeI5sw2ccwvlmaQgD/V8RFZswZKZc/Cz1YZsx+xLEiqdegIqWKL3x7nL8R9dpTu1xen1ymH3P3/jr3X/oWhMPVQtKeErhBAibzgWhG+RlJQU+bfZ0BrCzu3RgJ1xds6FEIUbivzXXnvNCFnHDV8UdHZh3S9/+RJWhURVnHxWfVQ+sgdrflyD8i3OQq0StoX3wL9Y+stu1DurMSoXSzPrnPAEegfwlVZ+/b8QQggRSTj4TYMLRS8HxvnqCGC3ECYSvoUACV8hRLSR8BVejOD1vDqCV8JXCCFEXnAsCF8ltxJCCCGEEEIIUaiR8BVCCCGEEEIIUag56sI3dfNqzPp4HJ5/YiAe6tsHffrYpd9ADHzuVUyfvRoJB+yNhRBCCCGEEEKIMDlqMb6p25Zg8msTsSjBf37TwJRATIuu6HFNJzSK4qT+ivEVQgiR1yjGVwghxNFGya2iQVoS4qe8hHHzEuBI3hLl6qBR65Y4p05FVIo5FdUPbcBf25OQ+PsCLFy+DomOxbdEDDrc8QB6nBEd9SvhK4QQIq+R8BVCCHG0kfCNNGkJmPvyCExek2zelohpjZ539kDL40uY94FJReLyTzHhw1lYncT3JVDn8sEY3DnGfBpJJHyFEELkNRK+QgghjjbK6hxRkrHsHUf0lkWjboPxwuM3ZiN6SQlUa3Y1+j39NG48o6z1PhUbZz6BYV8m+D4WQgghhBBCCCGyIM+Eb9J3r2DcUp/obXrTYPTrWMeStGFQohpa93kKvVpQ/AIbv3gHcZvNYqGAIyuHDh2y3wkhhBBCCCGEiBR5I3wPLMPkz9eZxbJte+Gec3PqTlwWzW8bgC70ck7biE8/mAvj/VwIqFSpEjZv3izxK4QQQgghhBARJk9ifBO+fAJPfJZg6dbWuGfEjWiaW7m9bjqGPD8LiaiGToOfxtV17PW55GjG+JKEhATs3r3bxHEJIYQ4NvDG+BJ3jK87zpelQoUKivEVQggRUZTcKiJsxPQhwzArEajTbTgGd4xERuYkzHpuIKavpwW5H164oZG9PnccbeErhBDi2MMrfN1i1y16neRW9A6S8BVCCBFJlNwqEiTEI94SvUB9tDknUtMQVUSHDk3NUnJ8PHxO1EIIIYQoLKSkpOCJJ57A66+/bq/JO7744gv06tXLeGHlBA5SfPXVV7jqqqtw3nnn4bfffrM/EeGSlJSEhx9+GMOHDzf3xLEIn4Hc3I9CCB/RF74bN8LkX658MupGcPrdEvVPgpnQaNdf2FBYAn2FEEKIYwAKw59//hmDBw9Gly5d0LZtW1O4PHr0aBw8eNDesmAyb948jBw5Ep07d8bQoUNRsWIEO0BBoDhy2tFbKOQLKrxXjnYI2PLly0078jUYuR0sEUJEn6gL34RtW3wL1aojok7EMTGoZRb2I9k3LbAQQggh8jnbt2/HkCFD0L9/f+zduxc9evTAc889h3vvvdcIX8e1u6BC0b5w4UK0a9cON910k7H4nnjiifan0aVOnTp4+umnMWrUKL9y1lln2VuEBgUerwmtrUebKlWq4IUXXsDAgQNRunRpe60Ilfx0LYU42uRNVmdSuSKiP94phBBCiPwKc2nQAvrvv//i1Vdfxcsvv4ybb77ZWNMogPv27Yt+/foVaIFD4cvzrFmzZp6fh5P47Oyzz/YrtWr5TAWhsmnTJvz999/pceei4KJrKUQGeSd8tybAhPpGigP7kWovCiGEECJ/Q3fVjz/+2IjCJ598EqeddlqBS4wSCjzPffv22e+EEELkF6IufGOOt0cZE7dju28pMmzegg1moToqVTELQgghhMincMq+OXPm4Oqrrw7b9XfHjh0m9peu0BdccIGxGnN/XtauXWvcqLkNC5e5zktqaipmzZqF3r17G1dkFlqb//nnH3uLzKxbtw7XXXcdBg0ahJ07d9pr/WGc7aWXXoqVK1di0qRJxpLtjvsMdFwuc507jtWd2Gv16tW4//77s40xzQ66uj744IOm/nQxd+Cxhg0bZj6Lj49Ht27d8Oyzz5pz4LnwuO4EYwcOHMBHH31k2oKf8ZXvud6B9eR+2GY//vgjbr/99vRtea5eV3Zeo8ceeyw93pvb//LLL+azYEnOaMFcs2aN3/e6d++Ot956yy/O1v19733EARi63kcD1oHXnrG/vFeff/759OMGuy9ZP9a/a9eu5nzuueeeoInRnG15ztyW3+E951wH3svZXUvW0X08trv3XuSy+551nr9otZsQ0aSY9fANtZejQ7Gt+O271UhK3Y3yp12IJhESqQk/TMU3a6wf7phWuLJjQ5S31+eG/fv3o2zZsvY7IYQQ4ujhuCby1V327NkTtutqfoCiisKXca/Vq1e31wbn0KFDJlaWIpPJoho1amSyJJ988sn4/PPPsX79erRq1QolS5Y02y9duhQDBgww03HccccdpoP+xx9/YPz48cb9l67HhP/rR4wYgffff99sw/pceOGF5nhsV25HUULBedFFFxl35S1bthhxyHjTRx55BFWrVjX78sIpEVu0aGG+37JlSyOmzz33XBx//PHGBfqll17Cu+++m35cvvL8WEde2zPPPNNMG+Kc+8aNG42FnPuhCIqJMWk9A8JkYRRYTp29lCpVCscddxymTJmCevXqmXYiS5YswYcffmgyJ3MdLfGVK1c2oojrKIpOP/10c+5sOybtmj17thGx1157rWmziRMnmmPznDkNCpe///57Y/n+9ddfzXZsY7Yjj9WkSRPUrl3bHP/33383143Xl27vnTp1MsKcbtsNGjRIb4ty5crhnHPOMd9hW3399ddGxPN6UbBddtll5rrMmDHD3AuxsbGmT5fVffTZZ5+Z+6h169YoUaKE2XcgeD5ffvklLrnkkqDXwHvPUIB+++23pi15v5500kmmHeh6vmjRIvMZ7xW2K+F1fvzxx81zwnvjmmuuMef2zjvvmP2WKVMmfd8U8y+++KK5v7ntlVdeadrrvffeM+1/xhlnmOud1bXk8f7v//4Pf/31l3leuA+2wWuvvWZeuR354IMPTB2uuOKK9Pr/+eef5hjctyg88D7nvUFPHPf0Rd5CvK8Fhei7OtdojubmNyIJi+bHm1W5ZyMWLvKN9FY7vakvu7MQQggh8i0UHhS8Tkc/VGj5Y4ebli12uvlKoUNxs2GDz/eL1i+KR3bOmSmaQoaF1kAKIFrdaG2lYJo+fboRQhS/ffr0MZ+zcLlpU99UiW4oEJ555hkjKB599NEs5/unuKHIpgihyGR9KRAoJCj6586d63dc1pHijcJv2rRpxjLnZuvWrcZqF0xoe3Fb9pzitjhTzLCN2AZsMxYKG7YvxSjFJetPi7w7XpjnRXgOtObSekmh5FwPtsv8+fP9rJisO4UyrZvO9WBCM+6L7cDrQSgC2Va8pk6bMJEVBXAwKFZpqbzhhhuMRbN9+/amLhSBjBvnNaPY5PV2CHYf/fTTT8YyHS3i4uKMtZR143E5AMCpmShkp06datrBHQbA87n88svNtnxlsjJu64XXdsyYMWZ/3NYR/7y3ad3P6lo6x+Mr70f3Pmj551RcFEEcZOP+Lr74YnMfOvXn81C3bl27JkIUHPIgxjcGbdr7RhWTF3+JubvMYq5I/uFTzDIBw3Vw3gV1zDohhBBC5G8oAB0LbajQikjLlQMtDI5Fy5n2iJYviqHzzz/fCFQHCgZmNKaFKjk52QjABQsWmERaoWQ63rVrlxEXhCI6K9GbFTw2j0uBxrq74fm0adPGWGHpFuzmlFNOCeuYgbI6M1u2483GtqGYouCh1ZYDArwetARmZ7lxzoGCi3V1w3rSOukVkHTtdYs2DnqceuqpxhLMOhAOhjABE92WHaHKuhQvXtwsB4JilfcSp4tyX29CoUeXXLYlhZtDoPuIYp9QoEeLQO3FtmIdec60blOoLl682JyPNwyAlnF6Nrih1bdjx47mGXBgO7Btec86Ax3B4IAHBxzoceD2vmCbsI14rf/77z/Txhx0WbVqFbZt22ZvZYmHokVNEaKgkSd3bcUOl6N1OWshbR0mvxaHhNzMUpC8COMn+izHZdtejU7yshBCCCHyPRQyjAtkpzscKBLcHXxCscZ1FEyE1mSW2267Ld3S6RRaJ3lMfk5RwDo0bNgwW6HH7/C7tCrTIst65BRa9WjNo+suxYQXChm6DFNsuOcwDnTuWeG27DnFsTg7UOjceOONePPNN01sLq18ocwz7JwDLdMdOnTwa2NaGjn44FjgCV2CvaKd9WAd6fLsxKJSALKeDz30kBHptBy744UDwWtIgRjIe4DXlWKR188tAFkfrws4BwR47rRuRgtaWL3inLBtHJHKwuVA9yXfBxKZbCMOANANmfcn3cRpvQ0FDjxwUIDWcfd1ZOG9QWs9ny0OWtBKzvZ2ph3jIFJBnm5MHNvkzXBN0Ua48fbWMOONGz/FiHeWICknz0xyPCY8NwHx/G655uh5ZSPfeiGEEELka2iNpHWLMYXh4MSaZQfFzlNPPeVn7XQKXXFr1Khhb+mLd80OuorSkklLF1143W6zeUWo5x4uFHwUY2yHQG60WUEX4UBtzEKX2HCheGXyKQpxxkIzzpUxp1klGstrONDCNnOs1IFwi343gUSvA4W4+14MdZCDbcM24v3OAR3Gkd93331GtIYDXe4DXUcWxyOCAyeMHWYIAWPOb7nlFjMgFE0ruRDRIu/8FBr3QM9zfCOOyUvHY8jz07E6jLm0U7ctwrgnXsUieloUrYOuD/ZCc+WhEkIIIQoETJzE5ESffPKJsRxGEooSWrFOOOEEP2unU2gFpZClsKDYYEKl7OC2PXv2NDGxL7zwgkkClVPxS0snLXy0ljmxrW6YrIhWUMZNhusKHi5se8bHMrs23X+Z5CsUEUMBxzZkG3ityk5xYoHDhQK/cePGZoCCIotinK9sl0DQak3xR9HnhfXjPNEU0eHGkweD+6H1nYmnAt0DbD8ekxZ9x63cgeu936GA5mAKB2NoAXfuS86364Xbui3g3BcTe5UvX95Ye2kpZ7Iutr97cCcrnOPxXvNeQ6e4E+hxe8Zc0+2frvSM9WYRoqCRZ8I3efl4TPwp48c+df0sjBo0EKM+XoaErDxaDiRgyYfPY8jQCVhGoWyJ3k4P9kOX430fCyGEECL/QzFDayEtvswMHMnpUGiZpRD47rvvsrTKUbxQfDPhUCgJjeieff311xvXXk7h4kyxEy4UQxSZzCrsnZ6GQoYJhOhayiy/0YRtw4EHilgKXyYsophjvK9XnNH9lrGnDhS9zZo1M3G+jKeOFN6BAFrumd2arr/MyBwIWiMpNpmEyXu9KYiZUZptyTpHAgpt1olZoDl44YbtRhHIGF3eW15Xdq73ulLzGXDXkcKabs7cj/e5YBwwt3Vge9ELgfcy73kHelP88MMP9jt/vNeS58NY3kDHc0OXZnf7coCC7cABmkgPXgmRF0R/OiOyOQ4jRs1FIn9T63RFv9sbYefK1UhMOYDEv5di7ldf4Jv5S7Hi73VYE/83ElM3Y9m3s/D5zA8wZdosLF2/Cwes75aI6YA+Q/rgvFrBU87nBv6IekfqhBBCiKOBI0T46i4FdTojwuy9tPxyyhnOOUqRQkstLXcUVLRksfPuuFlSEFIYONPYOFAUffPNN8bySNFLqxmF9RtvvGFiTWmhojigSGH2Wnb6aY1jx50Cg2KE0/pQRLCwHqwTj0VB4Z6ahuKCAoWWO1ohaZmkNTEYzjQ2vEbuejMmlfsYN26cSR5EUUH3WE4FxCl+6KrKjMZ0bQ40hU92cDoj1ptWb4qZzZs3pxeeP8UVt6FLMadGYntwOhqKYNaBx3EspKwfMz/zfmN92Kac/ofu6tyHu+24f9Z15syZxi2WlkQKPYp8tp93yhvvtEtvv/22aS9eG8Y4M+kSrxnjhimyKLy8bcF6MjaXc9K6rzfnm+U0P7wvGLtMEZpVW3rvo2CwjdiujD9mFmzWk9ZoJn3ifcx1TBpG7wAnKZdzH1SqVAmffvqp6V/yeKwLB37YlnfeeadZz++wndjmvP9ZVz4TPB/Wj/HJvCZsM35G0clrwDrwGvE+Z1uwPXnt3e0e6FryGeAAA5ObcZomthOFM12ZOXjErNtse36XWbnZtow95+ccOKEYp8tzTpO9ifwJn0s+W7xPnDCLQIV4XwsK0Re+ycswbtgHWM1cDeWao9egHmga0xCtOrZHw7KJ+OevBOw9DKQd2ItdCZuwadPfWLVsFf7elIBde1PBcN4SleujXY/+6HdDS9QKPcdD2Ej4CiGEyC+wo+q8uktBFr7sJNFaxFhQClVaUCkK2LnnMsUCRS+tUTzXUAUL90shx+9xP5MnTzYdegoCrme2Z+6H8P88s+RSeHIbJmvi1EgUs0zuw+3cwpdigsKA+6bQoUDmMYOJ32DCl/vgdD10R+XnrCMFBkUN3VWZ2dnpROZU+HLwgFY8WkLdhf0btgMFF+NBKdCcji3ryTajmGH9WE/WkYKfbcPBCE7zxPN3tx3bgYX15Dlzjlu6OnO/4Qhf1o3bUsjxmvL+5vQ//Jz7CtQWrDfFG++VFStWGOFJEUfxxmmD6KLOfZNICF/C82AiLopU1pfWX7q/M+sxk3KxTSnAHZz7gJmtma2ZdeTACe8tZtHmQIcz0EB4H7D96e7MgRAeg9eBbcHBBXebsZ35/PDZ4YADhTBjfjkYwOmm3O0e7Fry2BxooajlZ9wXrw3PgVNiOfc3hTTPldtQlHNgiNNNcSBEFC6OBeFbJCUlxd+3JZKkbsSnI4YhbqO1zLjcRwcHcFFORfLGv7F8xTKs3pqEbev/QmKpujg1piwq1jkHZzVrhPrVomPh9cIfDo1eCSGEyEso8LyvLBQXzisLLV98ZSeYHXUhRP6F7sXMtkxLMIWkEPmdZcuWGY8cil56OfDVEcBuIUwkfL2kJSDuuSfwqS16uzwyAF3r5I2AzSkSvkIIIfIaCV8hCh8SvqKgcSwI3yglt0rGsndG+EQvyqL5nf3yvegVQgghhBBCCFE4iYrwTfhyFMYtTTbLdS4bgF7NFDcrhBBCCCGEEOLoEHHhm7x8HEZ8Zky9KNuiF/pdEmOWhRBCCCGEEEKIo0FEhW/y7xMw7M1loK2XovepO5pDtl4hhBBCCHEswWmMOHWV4nuFyD9ETvhujsOo1xYhkfMP1emKAbdJ9AohhBBCCCGEOPpERvhyrt4XP8VGil7O1duvC2KiEj0shBBCCCGEEEKER+7lKactGjUOy/ZZyyXqoOuDvdD8GDL17ty2014SQgghosuuXbvsJSGEEEKEQy6Fr2vaoqKW6H1kMLoc7/vkWODgn1PxWI+HMHJugr1GCCGEiA6cx/e///6z3wkhhBAiHHIlfFM3zkLcMpPKyszVeyyJXlKyQXc8+lgTrHxysMSvEEKIqLJt2zakpTGmSAghhBDhUiQlJeWIvZwzEhdh+m8n4erzC/60RYmJiahWrZr9LnQS5o7E4CdXosljw9C/Q87bYeW4jrhvCpe6Y8zs3mhi1gZiJcZ2vA9T7Xc+YtF/8jB0qWG/9bItDoN7jMRi+61D7IBpGNa5iv2OePZ97RjM7uWpiWtfmb8fCXYiblA3jFxiLbbsj2nPdkEV9zqLQMcN2n7xY9Hxfv/WImYftacE/Mwf9/5CaB/X8bq/PBu9m5pFF4HOz0OQOhvsY2acbwCC7VcIke84csT3b9j9ykKR67ympqZi1apVZpnZYps3b262FUIIISLBsmXLUL9+fRQtWhTFihUzryxFihRJf2Uh3teCQu5jfKu1LhSiNzfEdOiPYXlk+d351WB0zCR6yWKM7NERg7/yxhxTZHVExwCiNyDx8/z3PWWeJfXyH4tHjEDcNvtNFlAcZi9sw6CAtA+WjES3jh0xNt5+L4Qo0CQlJdlLQgghhMgJyr0cISh+X3i2mRG/o5dEKeFV/Fh0G2HLV1r0Zs/GbFOmoX9L3+rFI7q5xI6/ldRYCtO/Y5WXu9sfZLBykS3rWsYi1ixMxbx8KZ4sof9inHWGWbAtDhMdi6hfe7nOvWlvV5uMQXqL+LVVhvX4aLQPrcYZdbGK18JsLNIZn08b4KsZmXr/4JAGCIQQ+ZvkZIYVCSGEECKnSPhGkCot+xrxu3zQQ1EQv5aIneTYGi2h4+fGWgVdns0QbVMn2YIwfoq/6PUKJkv0ed2c59lCsfsNA9DOFtNTF+VLm6axao7IZOEOQv16/m6/mc49FApG+1TpPMwlfhdj5Ix8ev2EECGTkpJiLwkhhBAiJ0j4Rhi3+B2/6qC9NgJs+xHz00Vs+wDxv03Q/lp7ccl8/LjNZZ1k/O+Vmb+RiXQ33ljUO64K6tU3b/KfO2/L/uhvn+viEVNCq9uU+9BxXC7PoqC0j0WVzj0zrNfr1tsLQoiCCmN8hRBCCJFzJHyjQImSJa2/iUjcFUHh+9/69Bjd2Lq17CV/atXNcHGlhXj9OnsRdVEvWNKrdFwW5Zbt0MravknrdBtyvnN3btXLsXBPxX3BBG2NLhjgcvs14rdjR3QclI2LdECOXvtMvd+qM+ttl9Didmuhnm2RxhIJXyEKOsrmLIQQQuQOCd8Is3f5WPR9KA51B72B/ueWt9cWAFwW5dgOrXxuwU3bZ7hP5zt35ybo7cTpWoI2mBik2+/syf3teFwbk/gpzNjXAtc+LlrWsxeEEAUVZtQUQgghRM7Rf9II4hO9MxEz4A0M7RS9TNeLN2yxl/zZsiFY3uYNWJ+NyNu5dH66RZkJsnzWRVf26Ny683J6HpfVMnTLZRY07Y0xtsvz1PvHYp5vMTM1umCYSfyUkQQspORYLqLePlngTW6VeXqkALhd44UQBZ4SJUrYS0IIIYTICRK+ESJD9I7HsM5REL0u62JgkZWReMnnilsFrTqEmuBoJ36cG0w0O+TP7M5NXC7PU4PNaZsOk4C5xO+S9Qg8hOCl4LWPW6jTQi2EKNiULl3aXhJCCCFETpDwjQBRF72GJrg2PV51Ku7zi1NdibEu62P3G3wZn/0SHAVK7hQ/1jfvr1/iLM+UR64pftKzRecEv2mDfCUky2W2uFyevWyLw2DvObvPtWU9BI6W9pAX7RNBOHexe9qrAWFnrxZC5DfKli1rLwkhhBAiJ0j45pLoiF5L2HrcgilQGa/quPb64lSdzzNEb+yAaS5BaYlCd3yrk9zJKff7vuW2DnZv7c3+nDlbtJsMt1+njI2ay29QXC7PmfCec4+RGedqDxBkR27ax5uYKlNiLb/r6CteF/Bs9+G5X+5Lt3x7p70SQhRUKlasaC8JIYQQIidI+OaCg6snoj9F74PRtPT606TX7MzJmgyWyJk9O/PctHZ8a2BhGIt2LbZgimMdtPbRPoAVNiNb9GLMX5ofbJqZaXJlgDapUQ917UV/fG0VmsV5ZYFsH19ccG9LlgshCgPFihVDlSoaxhJCCCFySpGUlJQj9vIxT2JiIqpVq2a/C42EDQmIqZs3olcIIUTh48gR379h9ysLpzByXlkOHjyINWvWoEKFCmjevLnZVgghhIgEy5YtQ/369c0sAhxs5StLkSJF0l9ZiPe1oCCLby6R6BVCCJEXsCNy3HHH2e/EscQ///yDbt264YsvvrDXiGjBwaYPPvgAN998MzZu3GivFSI67Nu3zxSRN0j4CiGEEAWEypUr20sFn23btuHWW29F7969sWvXLntt/iQlJQVPPPGEKVwOxO7du9GrV69jRpw6Yrxt27aZCtuB7VEQoXdFamqq/U6I6EEvnrFjx+Lpp5/Gzp35M5SwsCHhK4QQQog859dffzXZqmntWL16tb0251CsTJ8+HZMmTbLXCJKcnIw333wTs2bNstdEluuuuw6jRo3yK/fee29YmcijXcdwoGcFrb3vvfce6tSpY68VIvKULFkSt912m1l+/vnnJX7zAAlfIYQQQuQp+/fvx3fffYdLLrnEWAjnzJmTayvb4cOHER8fj6SkJHuNIGzXn376CQcOHLDXRJYTTzwRZ599tl8544wzUKJECXuL7Il2HYXIrzBp4cMPP2yWJX6jj4SvEEIIIfKUzZs3Y8uWLTjttNPQunVr/PHHH9i6dav9qRBCHDtI/OYdEr5CCCGEyDOYPGjBggVo2LAhTjjhBNSrV8/ELi9ZssTeIgPGywaKF3Vibl9//XXzntt16tQJ3377rXF1dmJNly9fbj4n/M6UKVOMGys/u+CCC/Dggw9i6dKlpk7RgMdnHCzjYXmcvn374rzzzkPXrl3x1ltvZTovxpeyHZztunTpgnfeeSdg8htnW54Dz4Xbc9ntNs72ufTSS7Fy5Uo8++yz5ryd+hCet7tePB473gkJCebz3EKrPq/LokWL7DU+2C6XXXaZ+TwSdXTfDzt27MDo0aPNdmyXJ598Etu3b7e39MHvch+8Djwe3bW//vpr+9Pg9x0HbNzf42ug9nKu+7p16/Djjz/i9ttvTz8O3bl57RzoqcB1jHXn+bHOQ4cOzVRnUbih+H3kkUdQqlQpvPzyywU2Rj6/U2zIkCFD7eVjHrpehROTIoQQQkQLR4zx1V327NmDWrVqmc8KIuzQvfvuu7jwwguN+GWcG629ixcvNuKA7x3Wrl1rhNxFF12E0qVL22uBQ4cOYeHChShXrhzOOeccM8UTXzktIa3IFEmdO3fGSSedZL7H9RQTc+fOxf/+9z/ceOONaNOmDf7880+MHz8eNWvWNHUJNjWHczzCOhYvXtwsu6GbLoX3qaeeilNOOcWsoyCaN28eKlasiE8//dQIpcsvvxw1atTARx99ZKzerDfdgnlt4+Li8Mwzz+D00083YqlDhw7GfXvq1KkmAVirVq3S980Y6QEDBqBdu3bmfFgvCsRvvvnG7JODCZyisUWLFqYdKS7vuOMOs8+6deuaY3755Zd46qmnTFtwQCA2NtaI1M8//9wss97BYH14LE6t5dTJC+9TtsHPP/+Mc88913Tq9+7dawQq2+maa64xbZHbOjrXh5YytnejRo1w1VVX4eSTT8Znn32G9evXG88C7m/Tpk0YOHCguc/YxrxPuMzBhbPOOsvUO9B9x7ZlezMhEZOyXXnllWjQoIG55hTNPAdnrm2e8/fff2/2yet07bXXmvud1/vDDz9EkyZNULt2bXPNmUGagxtXXHGF2Y6u4rwv6S5emJLZiezhvcbniYMlLFx2/+5FG963vIf5O+ievshbiPe1oCCLrxBCCCHyDAoKip/GjRub9+w4Uaj99ddfxkKWEyiwKFoo9DjlkxNrSuFAi9rHH39sRActKTfddJP5rH379sbCSNE4ceJEY82LBuxM0pV7xIgRRvzw2KzD//3f/xlLHzu4hOKMIpxWQQozCjUWWoEYC80EUG44UP/KK6+gT58+RgDSWvjAAw+YtqXYIhT+7DxzYMCJxeV7Dhg4x+vXrx/uueee9H3Qclq+fHnMnj3b7CM7HCutuziZrdlp5/mw7efPn2/WcfDh33//xfXXX2+EaCTr+Msvvxjx2L17d7MfvlLcMn7Yubc4kEBBSosu25f7ZBvymgSDVmTWo2XLluYecq4jBzFeffVVc99NnjzZL06dgzk0qAwZMiT9Wvbv39+cL9uA23IQi4L94osvNhZi7pP75uAHhb849qhUqZJ5jgnvrWBZ5EXOkPAVQgghRJ7Azj47/bTK0srqwE4+rXP8jEI1klC00EJIyx6FlRtm8O3YsaOpFwVRtKDlsEyZMvY7H7ToUeDRxZeWv99++80IQdaT9XKg5YVWXXd7EVpZaTl0c/zxx5tBAFo1s4NikGKTws9ttaGIa9q0qRGKoXS6A2V1diynhG1+ww03mIzbFKa0dDOTLd3csyPcOlKY8t5y4HecNqIIJRwMYQK033//3c/lmG0fDA5crFmzxghd73VkXehWTfdmDnK44Xr39rSm0dJN4c37nMesWrUqVq1aZab3cuA1ZxHHJvQo4W8AB0bozSAiRxHrByM6gS0FELpCCSGEEHkJRY/31V3YOWdhR5nv2YGnYCqIUJDR6kVr2/nnn2+v9UF3Xrq1MmaS7q+ElsOZM2caayktIQ4UO8OHDzdikNa6YOsIY0V5TMa/0urmha7XdGGl1fnOO++01/rj7JvQGhvI/dDZD8URXXYJxRBjTF944QXUr1/frHPw7pMWxQ0bNhhLsDfsyjkHutg6++a98N9//xlRTwFISzqFF4U+habTBoHqRehunNXUTxSM3nZ3E6hOwaAVmlZMugvTokkLrlto5raOdKEOdO2Jt558fhhfTSHO+HK6W9O1mhZkB+99x/fTpk3zuzfd8DrznBhbzAENvufcrCNHjsw02MJzWrZsWfq+OeAxbNgwYyHmAAktv7QKS/gem3BQ5MUXXzRu+48++qgZWMkreF/yd4r3HoW3MwDDASTn1RmA8r4WFCR8XVD45uUNJoQQQlDAeF9ZKHadV0f48pUuuQVV+M6YMcOIwKxgLC4TIpH8InxpEX7ppZdMp3TQoEEBhW8gIZiVAHLqS4sgXRspxihcA+3fu2/eC++//74RhRR/zZo1M/Gm7KyOGzfOxAKHInxp5aZIdsdVO3Ad3dGDWULDEb48V3bmObBB13LG8bqt2rmtI9sjVOFL+FxxEIYu8Iyr5jk+/vjjJk6X5KXwJYwPpys4nw+6qTMO/f77789kXRaFG0f0ckCL7vx5rUmOBeGr4SQhhBBCRB3GqDILMUWt1zWWhUKArqrM9Ou4pRKKIu/cvBRSjBsNBcaK0l2WCYucwQU3tKzQSkrhGAwKo5iYGOPuGsw7jJ1Vdly9ll1m52UiKC90Y6Qo4365f9aTFl+u98KESu45bjdu3GjEGMUWY07pOsyYZYrgYELVC4/Ha8KkXowt9ZZw5+INBtucsbi0SDPe9auvvjLJrkIhWnVkZ53JpZgEjYMHTCb25ptvBrxOhC7KFMpeV2YHfsb9BRLFoUCLNZ+LMWPGGMHMea1ZxLHD0Ra9xwoSvkIIIYSIOkxeRVdXunMGEjHM+stYVsZeOommKDjYEaTQc8O4WMZdBoLClELRgTGUtORRcFFouqGlkKKMlrVgmYkduA8KI2YJdicxIjzmhAkTjPWRAsgNY/SY4df9HYpBxjNTSDlWRoo4uiwzu7VboPN7tJS65/bkQAAFNeN53RYXxooyI3AgvMm76DVAweY9XqRhmzNzMWOB6ebMGGZm9Q40XU9e1JHXw70v3h+MIaY7tnvAxQ3vDcah0wrs3YbXnlbjM888E9WrV7fXhobjyeFAqxr3w2MFG2ARhQ+J3rxD0xm54I+ZpjMSQgiRH3A653x1l4I4nRE793QVpbjo0aOHseQFggKUmY75SgFASy0FLqeuYcIX/p/m57QK07rGQhdlQtc8WhU5vQwFM8UyRQ63YeIsiifO40shyUKBSLdTitLBgwebKXCygp1R7o8WQu6L4pOF9aGljst0Wa5Tp479DV9G5x9++MGIU85dzD4GxR0zADOTNMUgLX0UPEy6xDhPCmh2hHmt//77b7zxxhvme7RKM2kURRjPlYmiWA+2JUUxxTEzBFNMMXbVaRfCOFImiuIxuE+6CDOOlOczduxYYz3nPtnxpnhmHSgImSE7GM50Rmxr1p/n5S6sM8/ByXrsuCtT1HH6H7YXhS2/S3JTR27jnt7KjXfaJQ6AMJ6a+2dCqRUrVph9Ufwy7pz18U5nxHNhMq733nvPxFRzHduc9aWLNT+nK70TJ8zrzmmV+H2ejxtau/k5P+MADa3grAeXec9+8sknxrPglltukQA6BshPopf3JZ9n/l7xOeBroEK8rwUFCV8XEr5CCCHyCxQNzqu7FEThS9FGoUerJqejccSOFwoXWggZ10nrLzthjtWPyYgoainq7rrrLmP1dQsddsAocDlVDudK5T4oKtmR5P92ugITimiKcLpdMwMwE0s5mX+zgnWmGOd3KExo5aOAY2eRmaEpenl8N/yMQonCmi65FHCM4+R15PQ8nAuWYo5Q2NPVm/PSUqgx2RfPhXGvtIbTMu2IN54PhTqt4x999JGJD2WWY4pLCm3eH067cL8UkBSWbBdaEi+44AJzHLr4sj0p0ijGKeLZ1rTAM06Y4jAYjqDkdEwUk97COlOYcxuKQrp0E14zuvZSRPJcaCHPbR3DEb7cltee+6K7OPfFKZA4IOO4TQeax5cZszlVEz0XeP9wXmYKVc7NzGvpFrihCl+2Ay3f9CLgPnntGKfMe9J7L4nCBwc7OGjGgaLHHnssx67ykeJYEL5KbuWCP7QaXRNCCJGXUAR5X1louXNeHZdIvrKTxE68yP9kleRICCGYw4C/894BkqOBklsJIYQQQgghhIg4zOydH0TvsYKErxBCCCGEEEKIQo2Eby7ZuS0jy6IQQghhOHwQCauXYdkPi7F46Uqs35mRZVgIIYQQeY+Eby44+OdUPNbjIYycG3heNyGEEMceB9fNxNBuXXDD3f3Rf8hgDH74PtzW7XL0fnE2EjJmLhFCCCFEHqLkVi5yktwqYe5IDH5yJZo8Ngz9O/gyFuaUleM64r4p9hsvLftj2rNdUMV+a4gfi473T7XfeLjWqs+6wRi5hG9i0X/yMHTxJIvLOF7gz/3YFofBPUZisf3WIXbANAzr7KpVwO26Y8zs3vDLmelX9wCfu/ZjjlF7SvBzTce9n5UY2/E+pH/j2jGY3cuTtdNVh+4vz0bvptaCX/0DtYtrv84+g7SNwbluWW0T6PyzI9z2c18ji0D3WubtdiJuUDf7HgpAgDbN6h5Ob+OgBGhbQ7B6hNBumZ6REO71dLI5f5vYAc+g7ohH7XvNu3/3Pnz1RdA28v9uqG2586vB6DYi850VqL0D79Nux6x+Tzy/Pxn7cV2DLL6ffm9l+Rw4hHON8h8HV41H73snIrFDbzzb63I0iSlprdyJtXPexguvxGF9s/4Y/0QXxPgS+RrcSa2cVyeplfOq5FZCCCGiiZJbiWyJ6dAfwx5rgpVPWiIzmpbfJSPRrWNHjI2332dLBbTqEGsvL8b8pV6X7JWY53SAW7ZDq6CdTHbcO6Jjtp1VX2c48HZTcV+Wdbc+H7fSXo4Q8fNsIWIzZZ51xuGyGCNfjLNaINqwfQYjbpv9NmzCaD8KD+taBBJUi0d0Q8dBYZzvlPvQMVf1DgFT3+zFZ0ACCjHrmvaIdJ0boffL3e1la/8zXNcifkp63bu/nN3gBusWzjPuezYDid5MsC2CXPeQML8/Y3PwDPkw91akn/H8gu3SvHjObCxeOh+TXp2ILef2xxuPdveJXlKyChp27o/Rz3VHrR9GYuzcvb71QgghhMgzJHwjQOTFL60os82cfSzTBjgC1pI49wfutNO642xvSq8mqNKiHdKl74Yt9pKNSxjGdmjlb0lOx2PxohXOfYz0zr7P6pTeqfbbbox1Nj6C1d1giagsO/xNewfcp/+xMoTFykX22bWMtdtgKuaFLChcWB3+EV+FLn1p2cqoj1W8VnoL9zZjrrVXWqIn8+BEGGTXfoaVGJs+MEGrWkY90+8xCpxAAoUWP3tbb71H9ggkiPzvYZasrb2BWTkjYyDF/x6fhv4t7Q+CkHEPOHV37ptQ27oKujybccyM59C/7Ywls+m1GfVJH2Sxnp9JGXW4NtP5u9rI9SxNneQdfAjSli5R7X023b8Z/gMA/nUP1o4Zbe3+PPRnKOP7rmd1ykTEoQuGBTq23/1VcKy9O5dPRH/bpXnwM8Mw+OGhmLiqCXr38rfoOpRsehvuu7Ik5s9ZHPoAkxBCCCEigoRvhKD4feHZZkb8jl4S2S5Nlc7DXB1Zj0UpK2p0QU9HoHgsnjv/3WAvxaJdi8CyN1PH2usqbIlRn2vsSkxxrE7swPptZ3UCJ/e3xWfWdZ96f84tSv5kWLO73zAA7ezO9dRFOdv74hEjombVbNI6Q/A4cBCB1rmwrK8W2bXfzq8mpg92dH/ZX1zwHksXsxQo2Zxvk15u8TsVE8MYHMgZsah3nL1ooCjN2oJaq64j5tfDM+yDurV993x6W+faGlnF5WFht8e2HzHfsfbekHkAxA+3cA5Q3+yIrVvLXvLB6+kbaHCJbyN6vaIyu3Z0n1dOaIJrXb9d6/+zFwsBB+PH4qGHxmNH6/4YO8MW7XEzMe39J9Glrr1RJkrixAbNgR+GoVvHy3Hb4xOxLEq/LUIIIYTwJyrCN2nNLIx7biD63tMHffr0Qd/+wzDuy2VITLU3KKRUadnXiN/lgx6KgvjtmWE5Wbc+ZEGUIazc1pqd+HGuI1SDuzmnW8zYYb4yC4mRnfW4Rqt08RnI5bj7AEcYR0hApdeHYqkK6tU3bwIeOytirXr5Wi+MwYaw8BclvgEI1yDCkvn4MYROcWjt57rm1lm1D2B9zbhXQrOINrnSOa71Da9HQcShZTk8F+UqnQfYYtLnat/Rjh+mxT0n1ufscD+ji+f+iDjHWh3Q2htZ6Eo8ONC1d4lvXNszB5ZU1/0Y5L45Jjm8Fh89O9W4NA97sAsaVrTXlyyPKidUseStQwLmvzseM+MzXJurtL4LI58fhv69OqLqb+PRv8dtGBuvjM9CCCFEtImw8E3GsncHYuBL07FsfRJS03xrU/dtxLLPxmHIkHFYlOhbV1hxi9/xqyLZmamFellYhKbez459Rkl3e23aPr0znm7xdHWGs3JzXr/OXkRd1Muiw5xhPc6wpPnjEp+BqN0FA2yrUO6tq273Up+oDyz+Q6FVRuxmSK7EPgHivg6BxEjGNhlu5BkWWJeFLMvYaxchtd8WrHcEUMt61t0UgOPqpQvZkKhRz7ozbDINxjhi0yk5s+Y36eVylTXi17e/0OJgXeecTnf0dCXw2rLBJ+q8FtOc4bp2S0ZiZLrXQTbWXuL2rsh0fYK0ZdPeLqu7675yW6//W+8T3xbhnGPG74mTII7W4uxilAPhFs5eq30BZs0CTEqIwQ03BnZpzmAHfp8wEYv/dY36VqyH5i1i0eXavhj5wTvo3XI9pg0ai2XSvkIIIURUiajwTfhyFMYtTjLLFet3wNV9HsbTg/vhxgsboSKPlLQMEyxRvM4WxIWVEiU53p+IxF1R6skEEy4BaYL2TufYFic7l863O8P+IuBokmGds8RNbhJKBRL1gcR/qLjEReRcsd34Yi7dFki6qRq3yQDxwcGIWPvllPr1Qq5reDRBb6st3AKPGGGWlXuySebkyhCdHk/qE5E+4ey4xGfh7h8mfp4ZJEtrr0vQumNwHwz9utPl3B0fbDBJxyJ5rzLGOLy428zC2TqzAQNyYHHOn+xcvxYH0Q6nNbBX5JQy9dD9llsRs/9TzF8u5SuEEEJEk8gJ3wNLMP2LjWax2vmW4H24BzqdUR/V6jRC66v6YfijXVGHR0uchalzfeK4MLJ3+Vj0fSgOdQe9gf7nlrfXRgC3y2IAvMmt3EIq3eJpu846Vi5c2z5EC84GrA/RCrvh30CSy209DkYVdHnQdp1lQqkZ683acMkQ9S4LmKvznZPszhlWR0uojJtnloLhTW7lnUaI+LZxhFj4LryBCaP9gsWQuqyDIeHNnO2HNyFTTqyFGRiBx/24RV5QK7zL6p8em+5LVOXEynMQY+w4+74I1bIeEu6Y1hCtvQ4mwVMggZlNW6YnfnNbx3mv+t/p4bij+35PXPd9roS0b3An0LMQHpzuyhHUdsl1bHbOKFeVU9ftwN79vve5omo11LNe/tuxz/deCCGEEFEhcsJ39e+IpyW3aFN0vbw+SvjWZnB8F3SNLWsW1635w7wWNnyidyZiBryBoZ1yN6evF7egC+6eHIR0iydjN+MyEj+1zkqKuJPaWOIsixhXv+zRc3/MbG30izPMQmzXcLnsTpkanggzuONYg5GT7M5NXC7PU7MQe+HgEqps30hYabNsP5flP0gbuGO6Q7GAZmyf3b0UItvWIz3lWjC3XIo8l/gNPNASyMXZR0YSL+s6mufAEpVhWNZDoUrtoJmNPHgEba7rQeu4S/zSw8Pl7RBK0jJ/XPc9xW8YItN/IC48a3FBoGT9htZTMhtxCyLgW7EjERymqhMTybtQCCGEEF4iJ3zT7Bimmiehbinfopfq1e0MIAmJiOKMt0eFDNE7HsM6R1b0cn7c9Lk6W/bHgLAtJxmiZ/Hc+ba4yD5RjZ/bJt0nvR3f+LG+GFZ39mjvdDich9U9hU5WSbIsMlx2c4CfwPaf3sVtDcs8XUwIeOIpI4Kn3abYYjSnWZ1JVu3nTkblnVqK91jGdFTZJUHaaeaPdU9fFXqyqAyrnbHWxq9MtyS6py5yYsVXjstsDXcL7sAx5a54eK/Ys+5Zv7lsQ/Z6yIc4z58btxXeuJ/7Z1XO7F3Aa5mFNddvmqZwhXOk8bm9+z3X3kzzLgI+R8YFnvef65wDrcuOGh3R88Z6WPzKY5i4Khdz8h5OQNyESUgo0xWxBfZGFEIIIQoGkRO+DknbsT1IDO/+5GTfQrVKqOZbCkpqchKSknwlOZ9ng4686HXF/lklo6Me3DrlTW7lFU0Z7s6LfeIipA6/1dFMn4rIwsQOuo6RHpdobdnLNSene7t00UsrUCiWH7clNDzcVvHMFkiXxTPEbMle/BMtBcab3Cq7zrR7n74YYpfVOkf1zKL9LKE9LN2CRxGUUc/0eyzTdFQ2HNBIPyfX3M7BtvfcwyxGpLmEmS/eel76doGFtH89/bYLGj9rtcENgc/Tfc8aXPdqwKzI+YIgbWmR6X5zxwrbg0x+U1Vlak/XtQxIFDwT8oTA2dEzBk0yvB7c60LPKl8STW4chv7N/sT4e7uj25DRGO/O3nz4IA4e9i26OZgexstsz6Mx+IZbMfKHWuj2bG80z0gFLYQQQogoEDnh27gZmnJvyYvwZaAY3uQl+PYH3/o6jZtmdoV2SFyCCU/1tYTkQAwc6CsP9e2LJ96ahXW2bs5PRNPS68bnOpiLOEm3y6NFyK6pFEuzMycX8uF2ibU6yM9adXTHYDqY2EX/uOMscVtCQyb7aVfS53W1OvChTNeTGf/4zcjg3ifdSbdkuJjnNPY0q/Yz8aCuQQoX5h4L2d3WF7cZtnuu6z4MeA+mx+T6yLhm/pg46ayOzfN0D9qkY9eb1sKAnxcggmXhNs+b/yCTiZEOdr7ZDYJ5PBNG5NsBAjeu58r1HGVkeM/4jXCvCyvZX7EYdHliKsY+ejmabpuHj9KzNx/Eyrd74/LH45CQLn4PYOeS0eh91WDEbaL6Zbbn2UhodANGTn7H+m2U6hVCCCGiTZGUlJQj9nKuWT3pIYxaQHVaFo0u64XbmM25RCqSNy7DlDfHYwlH3cu1xD3P3IqmgdyhN8dh2DOfYmOwrM/lmqPXk73Q3BcqHHESExNRrVp2tugMDq6eiL53T0LVBy3Re2n0RK8QQoiCw8F1MzH0vtFY1iwWzX9YjPVNm6BU/ErgymF4oU8sqnimQDpyxPdv2P3KkpaWlv7KcvjwYfO6efNmNG/e3GwrhBBCRIJly5ahfv36KFq0KIoVK2ZeWYoUKZL+ykK8rwWFiApfpCUg7rkn8KkvuXNmitZBp/4DcHX9APbetNWY8PAoLGJiy3KN0PX229CpcUWUSE3Gxl+m4I33lyCRgvjkHhjevwPsaOGIEq7wJQkbEhBTV6JXCCFEBo74XWxnfq4XRPQSCV8hhBBHm2NB+EY2xrdoDLo8Mhz9LmuKan4W3RKoeHIH3Prk4MCi1yL1p1k+0Vu0KW58sh+6UPTygxJlUSf2Vgy+szmMofevb/FtMGF9FJDoFUII4aVk/csxdExfxJbJWvQKIYQQIm+IrMXXjwTEPfEEPk0Amt/1Ono1s1cHId1NutmteP2uQGlpM/YXc9njePySyAvOnFh8hRBCiNyQE4tvyZKKCxZCCBE5Dh48KFfnnBOe8F32Vh+MWwpUu+RxPH1ZYFG75I0+GL9cwlcIIUThISfCV67OQgghIolcnfOQypV9UbuJv8cjQE5oIC0eq9f4FsuUiVJ2KyGEEEIIIYQQhY58I3zrN27qi+FdH4fJy73zFqVi4xefYpFZXQdnNY9GaishhBBCCCGEEIWRfCN8cdrV6NmC0jcZy954BE+8Pwvx6xKxcdUsTH5+CIZ96ctoVeey29CpslkUQgghhBBCCCGyJf8IX5RF89sGoEdjWnNTkfDDdLxKwTt6Ouau8zk/V4zthX5RiO0VQgghhBBCCFF4yUfC16JoDDr0HY7hj/RAujdzibKIObklrn7AWn+LPaWREEIIIYQQQggRIvkmq7Mfm+Pw8DPfY3laXaTUaofk5P1I3JOKw2lHUKxoEVSrUAKn1CqL1qdUxiUtquOkmmXsL+YOZnUWQggh8pJgWZ2d4s7qzPf79+9XVmchhBAR5VjI6py/hG9aKpbMnoIBM45g3ZET7ZXZc0XLmuh3ad1cC2BNZySEECKvoZj1vjqC13l1hC9fNZ2REEKISCPhmys8wve0JKxb/C2+XLAEG3bbm/hxCH/sOh7LcQ6OIPxGpCV42HUNcF3bnMcAS/gKIYTIayR8hRBCHG00j2+ESF4Th1GDBuL5SbMQvz4JSbsyl2W7TsIytMyR6CV0gx44aS1eifNlfxZCCCGEEEIIIUieWHzTKVoCMY07oE1sHbhn4p21+jDGLjxkv8s9w29omCPLryy+Qggh8hpZfIUQQhxtZPGNJHU6od+zo/H4vVej0zkt0dIu1eudjjd/OGxvFBkGf/gn/t66334nhBBCCCGEEOJYJnrC98B+JDt6tmxz3NrvajRym3ltRn2xwbgpRxLuj/sVQgghhBBCCCEiL3yT1yHulYHo2+95zNrmrFuGiS+Mw6y/ku0VPmiV/WTJVvtdZOF+ZfUVQgghhBBCCBFZ4WsJ3HGPPY9Pf09CKt8XLYGK5UqYj1I3L8P0kf+HccszxO+XS7fbS4Eog6t6nIWf3uiEBbfZqy5qigWjL8B/73QyZcPoc/H6+cGnMMp6/0IIIYQQQgghjgUiKHyTMPe1cVi2z1osWged+g7H6FdHY/jI0Xh9eD90qkcBnIxlb47HIlv7Llqzy7fgoW3nMzDrJUvUXlQVdX262cdxJYF1CRj1wV94Z8U+pJQvh6u6NsL19sdegu0/kuzcttNeEkIIIYQQQgiRH4mc8F33Lb78iwtl0fyWfri6cUWka9aKjXD1w/egdTlrOS0eX37lm3JozRZ/12eH00+rjLqpeyxx63FVnvAL2r60Es/OWodBLy3HbHpJVyiFU3yfZiLY/iPFwT+n4rEeD2HkXHfqaiGEEEIIIYQQ+YmITWeU+NUwDJlpCdqyrdHvhRvRyF7vJuGzIXjiy0Tg5B4Y3r8DzrxnQdaJrW47F/+1LYe1C2ah7Tv2OkMZtO3cEC91q4lKf61Dp2f/QqBUVsWKFsG6V9va77InJ9MZJcwdicFPrkSTx4ahf4fwp1Bys3JcR9w3xX7jIXbANAzrXMV+txNxg7ph5BL7rR+x6D95GLrUsN+SbXEY3GMkFttvHfz3aRFwu+4YM7s3mtjvDPFj0fH+qfYbi5b9Me3ZLnDtycJbx4x6ec8zUz2Ity7pxwjh3OH+boD2wEqM7XgfzBlcOwaze1lnF6SNHLq/PBu9m9pvDOHWIzOZ9ymEOBbRdEZCCCGONprOKAxS00xUL1CxOir5ljJTzLYB70tGTm2xLz3D+N42mH6NdZx1m3F3ENGbV8R06I9hjzXByicHR9Xyu3hEN3Qct9J+FyoUZx3RMQvx5UAxGni7qbivY0eMjbffBmLJfPzoJDJz2PYj5gcUhZlZPPdHq6b+7Fw6P9s6h8ZijHwxLtP+w2Xq/Vb7DMr9ftxEY59CCCGEEEKIzERM+FarUt23kPA3/j7gW/SyZbMtDGOqgbbRahXcAbyh8c7UePSZvhEf0w365OMx6YUzgsb45mT/OSHy4pdW1tmYzTK5P2LttZgyD5mkLy2hzramONZNj0WSlk33di93tz+wtvxqcIYF1m+7MVZNfEy9fzDivOLWqllsS74uxvyl/vLNEa6xLdNrnxnrM/NpJuG8Ez/ONd+29x+EoOfuYclIjPgqdHlJC3SgNuB+ugUafAihHmHvUwghRMTYvXs3evXqhS+++MJekzXcjtvze0eDlJQUPPHEE3j99dftNeGfQ2Fky5YtuP322/Hee+8ZDwghhAiHiAnfEmedg6Zmb/GYPmEJktLM6nSSl4/DxKW+5abNfC5ap9Qqa17DYcXyBHz8xWr0eekHDF1xEKhSFVdfZH/oISf7zykUvy8828yI39FLImjDq9EK7bISf8GIn+IveunO66Zpb9u9eCWmjLBtqxRwfts1Qe904b0YI2cEF2j+VltHuAJ169c1r1njEc7p1uK61vfNmlyzeMSIAMI9FKw2cAvVKRNzuB830dinEELkfyjk2rZtG7AcS4Ju6tSpUT3nwtrOhw4dMkUIIXJC5JJblWqJqy+tYxaTl47HkEefx+TZS7Dkp1mY/soTeOSNZT735mqdcMk5Pkts61Mqm9doEe39e6nSsq8Rv8sHPRQ58esnYNv7x9pmwcpFTgxuLPpfmcW34uf5Yl0tYju08sTpWriFdwCLc7sOtnxzW23ThWt3tG9t1gShHdpd61tyC+d0N2frfNubNTkndkB/W2BmLdyzpgmuHeBYrhdj/X/2Yq6Ixj6FECL/U6dOHTz99NMYNWqUXznrrLPsLQo3SUlJWLRoEc477zzzun+/J5FnhIhUOy9fvhzPPfecqffRhudEa+/NN99sYhCFECIcIid8LWIu6YdesRXNcuqudZg7bTzGvzMds35P8M3rW7Elbn34atS3j3pJC9s9OkReerQ9Zj3QCP1a18ezD5yLoaeXBPYmYdY39gYewt1/JHCL3/GrDtprw8UXV9uRxUkilckaa0NXWWdbFhMzuhPr19mfoy7qBXL/tdn5b0aEdN3amWSvRRXUy8rq2qJ9urB0rLZu4VrLtf9AtGrtFc4Z1uLurWu5ziMAAc/dSyv0dty6p9yXdaxyFlSpnWG53vCv5ygh1SMzWe5TCCEKKRUqVDDJuc4++2y/UqtWLXuLws2qVauMK3O3bt3wzz//4M8//7Q/iSyRaudNmzbh77//Tk++JoQQBZWICl/fVEZP4+m7uqJ5vbLp0xmVKFcHzS/rhaefvhUtfbrYcFLNMriiZU37Xfas2X0YdU+rg0F3nIzbTisDbNmO19/5BRkRMBlwv9z/0aBESUuQIxGJu3IqfD3QVTlT1uT8QhO097PauoVrCPbpph7h7LYWRyrjcdPeGGPXcer9YzPHSYdJ4AGC3BGNfQohhMhfMC71p59+QrNmzdCkSRM0bdoUv/zyi0SlEELkAREWvqQEqjXrgl6PvIDRr79u4kxGjxyMXpc0R7UAuab6XVrXTDsUkHd+wHG3ZUxl9PorC3HKHbPMuuPumINTHl2Ooct9n7nh/rjfo8He5WPR96E41B30BvqfW95eGy52ciuXpTJoRmdvYqVMAnkD1ocYPxrY6ui2HgemidtqGx+ucPUXzitd1uJsZXO2555Bk15OTO1U3DdunlkKhwzX8QCEUQ83We5TCCGOUdxJnDh109ChQ3HBBRegS5cuePXVV7Fv3z57Sx+0nk6ZMsW4vzKGlduNHj06aGKqhIQEPP/882Y77nfIkCFYu3at/WnWcDtuz++F+13CY1P4tm7dGiVLlsQ555yD+fPnm+kU8xK6LT/44IMYNGgQ9u7da6/1teWwYcPMZ/Hx8cYq/eyzz2LlypW49NJLTft6E2699dZb6Nq1q/mMiadmzZrll3iKrtLcz7p16/Djjz+abbjtddddZ7blFF0O/B7X9e7d27iCs415/bdv324+D5bgKzU11e97LFz21sWdNGzHjh3mPnHugyeffDL9OA7OveKcH+v89ddf258KIQoaURC+4UGr7LDrGtjvIgP3dzSsvT7ROxMxA97A0E65m9PX4LJUhuemWwWtOmTEj2YV21qlRTs7eZVjsfXgnpYomBh1WW3XL1ofunC1yRDO6zFvQxjW4rBo4nJ5npoe1xwaKzEvfd7hSFmio7FPIYQoPPz+++9GhJ177rlGfFx55ZUmKdT48eP9xAzfz5gxA1dddZWJYb311lsRFxdnRDKFjhsKmRdffBExMTF46qmnjPCjK+9jjz1mhFlWLF26FH379kWpUqVM7CwL68F1rGsoUARWrlwZ9erVM+8bN25shPyKFSvM+7yiYsWKuOmmm4y4pRB3oPX5hx9+MOKU83k++uijRuy544Uvvvhisy3FOj9fuHAh7rvvPvMZrxWv2Ycffuhnxaa4/fjjj/HZZ5+ZffN6Ovt0js/t+T2KUYYNjRw50lyfAwcO+IlzL4yRfuGFF8xxzzzzTAwfPtws161b1+z/3Xff9btfyL///mvilun2zfuAIpnn/dJLL6XHXPO+GDBgAHbu3IlHHnnEHKN9+/bmu0KIgslRF77kurYxeLjrifa73MH9cH95TYboHY9hnSN3/CZXZkxnNHVS6HO+Vunc0xajFoEsxvFjMZhT/NTogp6OuPZOrbMtDoPT5/bNKklWRqKmqZaoJGEJ16bXor9JoGUJUiMGoyQE3QMJocI26HhfulDu/nLvkAV9UKKxTyGEKCC4rYdOCTR10LJly/DQQw8ZocXYVAomil9aDbdu3WpvBZxyyil44403cPnll5vtunfvjltuuQU///yzmf7GDQUxRQ5FH7e98MILjVAqU6aMEWa0HAaC1kEK7CuuuAKDBw82FlsWCubY2FhjgQz2XQcKKiazYnIpxt+SmjVrmjhcnlN23w+X7Nr59NNPN+czffp0c34sH3zwAa699lrjhl2uXDlTtxNPPNEvXvikk04yQpLtxdcRI0aYdnSuEa3FX331lRlkcOD14vnTQu60Xf/+/c2+5s6da859z549RkTzetNC7FyfZ555xojYYMyZM8fsg/Xo06ePuR7cP0Uzheu0adNMW7ihwOd58l5x7hnWnSLcGQDhoAAHJdhm3B/3y/3z3hFCFEzyhfAl93apg+E3NAzu9pwN/B6/z/3kNdESvQZLmA5wsv9awjTTfLTexEpW8VmG3VMRWVD8urdzkmZZNOk1zRaeFu7t0kUvxVmQOXJt3Jbj8IWr20JtEaq1OOi5ByfD5Tk4i0d0C9gGnIu3d6DzCqEeYe9TCCEKKYGyDd97770oW9Z/CkIKNYouB2bxPeOMM5CcnOxnyeXvaqVKlex3QJEiRdCoUSMjtrximvt0rK0OFJ90jWXSqWCWxT/++APr16/H+eef75dNmIKZQpYJqlivrKCgomWX27OOpESJEsbdefHixdiwIetkkOGSXTvzPDhYQPHKMB2Kd7pf063XqV8wKJIp4ukiXL16RiJRfu+0004zbfHff/7TFdClmO3lUKVKFZx66qlGXLIObIuqVaua67BtW0aMVtGiRU0JBI+zYMECY4nlveGGdWnTpo253hxYcNOyZUtTTwduS7FPHIsvLfN0Cac13+2OzXoKIQom+Ub4ElpqZz/eIqyEV4Tb83uFydLrxm29DWs+Wks0D7P+mQW2csaiXQsnErUKujw7OyOm2I0dv5qtOHNPexSGm7ODWzhH3s3ZjXsaoRCx28A373GEiMY+hRCiABAo2zBFi1dQUPR6BRjFklfQUjRRnLz//vvG9fa2224zVsdA0MIYaBqcatWqYdeuXZmEsgPdXVm4b7cFlYVuuxSC/DwYdOOlNfHkk082LsRumOCK50UrZCQJpZ0pWm+88Ua8+eab+Oijj4zVk27Q2UGxSgvtyy+/nKk9uD9eI7oKO9C1nG3shvVgHWmVpzszRTGtsIyz7dGjh3FF5oCCW3R6oaWYLtcNGjQIKEhLly5t3Jkpwg8ezEg4yvrwMzccEOC5O5ZqthUHBuhyTfd5Dgxk5XIthMj/FElJScmXqQT/3rofXy7djkVrdmHNlmQk7knF4bQjxrJbrUIJnFKrrJmnl1MWRSqelz+e3h/mrDi4eiL63j0JVR+0RO+leS+6hRBCFHycWEj3Kws7/M4rCwUeX5nwiYKmIMKkQnRhpluq20rrhuKTLqoUHXTVdcMYWVotX3nlFZMZmf+36QpLKyHdURs2bGiEJcUUBYuzXVb7JBQ1jC9lvSiU+H7mzJnp9eT7CRMm4K677kp3U3ZDMU2Xa7oHB4JijnGitBwHo0WLFibelOKLFm26YNMaTfdakt05uAmlnR3YpnQLZt0p4jk44MbbFoTTMNFVma7ntK4H4oQTTjBtyf3T8szr4bbgk0D1pAhmwi/Gbf/666/43//+h/vvv98IY28bOO/pEk13ZS9OO/L6PPzww+b58barg3NOFLlO+/L5o4CnWzfd5CmuH3/8cXOthChs8Fnk7yc9LPjMON4WHIB0Xp3BSO9rQSFfWXzdUMzSbfmD+0/Hz8/FYt2rbbHh9Xbmle+5np8frSmLSMlGPTF0vESvEEIIcTSgCytdhJnI6v/+7/+MpZCxmHTzDQQTE1HMuOGAAjMz16hRI6CoJbQG0spJMee2oDqFAxHBRC9Zs2aNsTpSYLpdj51CYUerNQV8XsKBA2Zlvvrqq437L63mjqtvVjDBFy2mdI0O1B4s4c4X7MB9d+rUCWPGjDGCmTG8LIGgEKXBgpbhQDHSFL4cBGGMMOsaLuzU165d2yQwmzRpkomLpnWc3gFCiIJHvhW+BYWYuhK9QgghxNGA1m/GYtJV2IFClnGfgWAsrTvpEvnrr7/w/fffGyteMPFKa2758uXx3Xffmf2HAwUZky/RpZkxwoFEItfTGkp36HD3n1N4nE8++cRYdih8mVCKCZ0Y7+sdHKBllfGuDnSRZowsBal3CqCc4ng1ONDCxCzNFK0U6IHggAQF+7x58/Dbb7/Za33wHJgsixbbnFhoDx065NcOjD/moArdnUMZHBBC5D8kfIUQQgiRZzA2lC51zLrsLnQDDlf0MQ6T1j66NDPZEgszLQezyFEg0+WYc7HymJweie6ttOox+VIwt73jjz8ePXv2NO7QtNpSaPH7fOUUOFnN7UqLNAU3k1p5E3g50GrJJFcUal5hnlOya2cu04X5+uuvN+1CF0dazDn9j3tqJ1q5aa1m9meeB+fGpaWV27Kd6XrO/XB//Jwu4ZySyJ2ALBRYX7ojT5w4MX1fb7/9tomfbtWqlb1VZjp37mySWNHlma7T/B7vA84/zGvDLN5O4qpw+Oabb0wGb+da8xoz6zWvE12lhRAFDwlfIYQQQuQZGzduNNPa9OvXz69MmTIl7Cl9aC2lkOV0NRRNnNaI8Z6XXXaZvYU/zELMKZI+/fRTc0yKNGYxZpxwVjk+KIgpjBkDS0FHcc3v83gUs1nFXNMSSaFJ62UwuH/GKNOyyZjYSJBVO9NSzrozIzbbkLAOfE+h63Z5pnvv3XffbYQfRb+TxItCmXPbUtCPHTvW7JvtyIEIWrDpshwO3J4DGRTR3NfQoUONdZXzLtPiHgzG/lL08jt0fef15Xkz4zOF7yWXXBJ0QCMreH6MN2Y9uG+KXg4SUEgHSpAmhMj/5NvkVkeDcJNbCSGEELnFcad0v7LQ9dN5ddxA+VqQk1sJIYTInyi5lRBCCCGEEEIIUcCR8BVCCCGEEEIIUaiR8BVCCCGEEEIIUaiR8BVCCCGEEEIIUaiR8BVCCCGEEEIIUaiR8BVCCCGEEEIIUaiR8BVCCCGEEEIIUaiR8BVCCCGEEEIIUaiR8BVCCCGEEEIIUaiR8BVCCCGEEEIIUaiR8BVCCCGEEEIIUaiR8BVCCCGEEEIIUaiR8BVCCCGEEEIIUaiR8BVCCCGEEEIIUaiR8BVCCCGEEEIIUaiR8BVCCCGEEEIIUaiR8BVCCCGEEEIIUaiR8BVCCCGEEEIIUaiR8BVCCCGEEEIIUaiR8BVCCCGEEEIIUaiR8BVCCCGEEEIIUaiR8BVCCCGEEEIIUaiR8BVCCCGEEEIIUaiR8BVCCCFEvmXLli24/fbb8d577+Hw4cP22siwfPlydOvWDf/884+9JjgpKSl44okn8Prrr9tr8p5AdQjnHPI7u3fvRq9evfDFF1/Ya6J3fmxDHovHPBZJSkrCww8/jOHDh5v7SohjAQlfIYQQQuQJFBtt27b1K126dMG9996LqVOnBhQhhw4dMqWwQ1E/atQonHfeeUbsRRpHNLNI6IQOr4X3nnVKQW5L3m+RHkgSIr+TJ8I3ddsSTH5+IAa+sQiJqfZKIYQQQhxz1KlTB08//bQReRQOV111FUqWLGlEcY8ePfDNN98gLS3N3tq3Pa29N998M4oVK2avLXwkJCTgzz//xJlnnokFCxYUSFGSnJyMN998E7NmzbLXFB7uu+8+c8+6y7XXXosSJUrYW2TPhg0b8Mwzz2Djxo32mqNHlSpV8MILL2DgwIEoXbq0vVaIwk2eCN/4meMxd10SkpZPwJCHnsCExYmQ/hVCCCGOPSpUqIDmzZvj7LPPRseOHXHnnXfixRdfxEcffYTY2FgMGzYMP/74o731scOSJUtQo0YNI6Z4/hTCBY3U1FT89NNPOHDggL2m8NCoUSNzz7rLqaeeGtZgzI4dO7Bs2TJZWoU4SuS9q3NqAha9OwSPvBSH1Un2OiGEEEIc01SvXh0PPvggzjrrLEyZMsXEIB4r7N+/Hz///LMRU02bNkW1atWwatUq+1MhhBCRIE+Fb0znXrj13BjQKSR5zacYNWggRn25GkkZHk1CCCGEOEapWLEiLrnkEiP6/v33X7MuUMIjWszoTtu7d28TE3vBBRdg6NCh2L59u72Fz7r21ltvoXv37iYes2vXrpg0aVJQa+TSpUvRt29fsz9uy++GkvjoyJEjft9lzPLzzz8flsWWLs4832bNmhmLOMX/d999ZwRxNHG37ebNm00bsi15Dq+++ir27dtnb+mD58RzY/uwTa+77jp8/fXX5jO6ql966aVYuXIlnn32WfO5OylVuNcjO1h37s+pCxOg8Z7wWlOd4zrb3XPPPfjtt9/sT3MPrdwjRozAbbfdhq1bt9prfffo+PHjceONN+KPP/4w7cxYdrZhz549TV3cMcJsB3o9sE35GV/53t0+4V6vtWvX4rHHHjOfO230yy+/mM+cmG93ojTC+3nNmjV+3+M1C/Q8sB6sz7Zt2/Dll1+m153HYWw09+XgnB9DFrgN9/3yyy8b93gh8oq8tfiWqIWWNz2OF568Ec0rWu/TkrD6s1EY8tQELNkm52chhBDiWKdBgwZGAK9bt85e4w870x9++CFGjx5tXKVHjhyJQYMGmY713r17zTbs1I8ZM8a4D7NjznjM//3vfyb+9IMPPsgkjuhaTJFy2WWXmf1RsE2fPt3sIyvxybqww884yVNOOcVkyOXy+vXrMWDAAGzatMneMjjcx6JFi4zbbM2aNVGkSBEjfFesWBG0DSLN77//blzMzz33XCNsr7zySpNsjG3itBXPhee0c+dOPPLIIyY+tH379ukDFBdffLGJ3WZMNgUQ2/zRRx817tvhXo/sSExMNPteuHBheuwt685z4L3hCC5uRwFHQUwxxu0uuugiU/fZs2ebbXILY3yvueYac58wPt059l9//YXPPvvMCOKTTz7ZiF7WlbG1vF9ZFydGmN+leKYw5L74GWPfJ06caO5zims3oVwvbkMPCj5LFMjcrmHDhn7i3AvrzoEMDijxmjn15HPx6aefmjZnm7rhc/f222+bAY9+/fqZe4Du3zzm33//bbZh/XkeH3/8Ma6//nqzTx6DdfGemxDRJO9dnS1K1GiNXs8OR7/LGqGiVYPUhEUY/9hDeOL9JUiU9VcIIYQ4ZqlUqRIqV65sv8vMnj17jOCh0KJApXvwhRdeaJIG1a1b194KxqpEscXPuA2FDzvw/K7bjZoWOFrkKDycbW+66Sb83//9H77//nsTsxoMClyKDXb4aUlkjDKtvrSklS9fPiRxRSHBY5xzzjnpiZLq169vxBLXO0IqmjDu9KGHHjJt6rQVxRQHBByhFB8fbyyKFK6tW7c259qnTx/TVuSkk04ysdu0WJ944olmP3xfrlw583mo1yM7KOwooPjqvmbcH4XeV199Za6psx3blxboyy+/3GzHV4qzMmXK2HsMDQpXnoO7ONm3ed/Rikuhy3uCopECnMKU2/G6nnHGGSZOuFSpUjjttNNMXZwY4Tlz5ph9OSKWn9HKSqE5f/58Y7l1E8r14mDKcccdZz7jteI146BMp06dzOeBYN1p2b3hhhtMm3Fgg/vnNaZ1lm35+eef+92TFPgc3HjggQfS7//+/fubz3htCa8HXfkpep068zo8+eST5n4RIq84KsLXULQiGl3SD8OfvQcdYvhDn4qEH8ZjyKBRiFuj4F8hhBDiWISigSUYFBFVq1Y17tB0sXQoWrSoKYRZamkNpshwoMCg0Ni1a1cml01aAb1CiELl9NNPN5bXYOKTwpQdd3b4aal1YIwuY3Vpsc3qXAj3T0HZuHFjew2MaKZopOjxWtiiAcUZxaoD24rnTzdUp/4cjKBApSXRnXXbEetZEe71yAq6LlPU0cWXceEObH8KStb5v//+M3VdvHgxOnfu7HdupHbt2mjVqpX9LjQCZXV29stjsz68hjNnzsS8efOMtZNCL7v2YX2ZxZvXoF69evZaH/QioBeA1/IfyvVi29BKT7dl5/5lPYsXL26WA8H7mfVlm3Gfbng8ilqKaw4+ObB+PHf39scff7wZvOF2PDafLT4nv/76q587Nr/jPLNC5AVH/26r2BQ9Hn8BT9/SGkb/Jq3Gpy8NxMDRs7BR3g9CCCHEMQU7yxRCdAkNBDvRdBFlPC+nP3ruuedMjKxbjBG6YLIj/8477xgXXcYW0kLohR33WrVq2e8yoECg2ONx3HGWbvgZrXG0tlGMOKVdu3bG4kfhEey7hG6eFBIUuayHGwozCjgKl2hDUeMW7oTtT+uhI0oprGiloyv4rbfeauI7HdfyUAj1emQHhRPvEVog3W3Ownha1pntznpTVNO913tufB+u4AqU1dntmcD7kkJ37ty5po1uueUWnHDCCfanweE9wMGNadOmoUOHDn7nQ4s4vRE4DZKbUK4XRSrrSMswrdUcRMnqXiS8n7nvQM8ej8cBAw48uAcqKLA5EOXG++xwIIju77z+9NJgXDFjlPPCm0EIN/lkmKUEqsXeiMef7oeujRn8a+nfVdMxTFMfCSGEEMcUtCjS4um1frmhCOPcvoMHDzZzolJk0E3UicdlQqU77rgDTz31lIlJpcspLXYURl4ogLwiwg0Fjdf65Ybz7vLYXmsgCwVH2bJl7S0zQ0FDqyTjJ88//3w/0cPYUNadQio/xEGyHXg+jDtt0aIFXnnlFSP0mNgrO8K5HqFCN+tAbc7CGGkHt5U52vBYzvGyuu6BoGtzoHNhoXtwuFC80uWecdS0wD7++OPmGjjJxvISPl+0+DOem9OXcbCH9867774bdny3ELkhf/kXVGyELn2HY/gDXdGIISH21EcPPTddUx8JIYQQhRy6dH700UfGdTImJsZeGxgKDMYrMm6UMZuMk2ShFYkJeiieaV2kxYuJgmj9YiyiF1qlaBn0QqsiRQLrEcxdlfGrdC+lVdFtCXQKBXpWrq7MsEtByfoHEjyMG6Uw9lr8jhaO1Y8ZrJmRma7gFFaB2s8h3OuRHbzudJ0uWbJkpvZ2Ci34znZOgiU3FFvZWT/DhYMuEyZMMNZ7JqiiqOO9lR0cVOF9xHbidwOdD+OncwIHdeh+zVhhDhTxXuNrMPd7Wm95z3Nwwgvrx0RmFNHBvDGyg/cArz3jiBkTz7rQ1V+IvCJfOtZXPKUL+j37dPrUR6nrZ2nqIyGEEKKQwk41Y3aZUIdukewcB7Oy0qXZbSVi555WVyYYossoraOM/aXrMDvaDnTL/eGHH+x3GRw6dMgksXJbVVkfWlqZlIfWzWBQqNCtluKU3wkHxqAytpPxwXSNDiR4mLiJRHL6nZzCdnKfI91bWXe2qzfzNd1YHcK9HtlBccZYXg5yZCUsKc44IBFoO7qP85pHCrYLj8N7mG74V1xxhVnPzOBeiybr4k7mRdHLaax4LzC5VKTweglwwILPCQcpeC0DQUs5ryUThHnrTUHMNuPz4CQsCxU+s964cN7fvIcCiWwhokW+FL6GEtUCTn00cOh4TX0khBBCFFBoSWVWWmZ5ZdZjxvvRBZMukMxCy2lQKH6Dwe8//PDDxuWW+6Do5HQqjD1kXCwtgRRGFK60LPFzdtiZpTlQYh8KJFqaOe0NkyZxe053Q1dexiMyAVMwmjRpYoQOYzop2vl957zoZpqVYKVIYrKfli1bBhX5jBGluGb9w8l8HA04VQ9dy5m4iedIKy5dV5mN2olPppWVdaYI5BRCLIw7Ded6ZAdFE2O7KeDoes1kUs59QIsrp82hRZPWXsYkU7Axpvjbb781273//vsmEzfrFA6rV68233cX3seMOeb9w30yjpUDMBTndOP+5JNPzHYOjHvlZ5x6iPVlG9LyzKmd6FnA7OCsn7N/bsdpi9wxtaHC+jD+3bknGUPM47Vp0yaocKVlmc8h25FTGTnXmnW6//77TZtdffXVWYYGBIIeCzw351qxTuPGjTPtEe51ECI35F/ha+Od+gjblmRMfST9K4QQQhQoGJM7ZMgQ0xFm3CFFEufuffXVV41YpDDICooruhCzE819UCjTevjiiy+aLLjkkksuMR14ijW61lJAMCFToEy+3B8FFAUoBSy3pyhlHRk7nFV8Lz/jVC/cltO6UJBzKhcKQlobg7mo0prGRD/MfMvtgkHxRqFCgRzIZTcvYV0p0tjebHeeI+M0OR+r00asL9uZQpjb0eJJcRvO9QgF1oWDE7RQjh071tSH01kxyRljpXlNCS2pFMIU4xyYoNimFZ/THtECGg50qedx3IXHpJWW7t68jkwo5YhC1o2WfLfLM+PW7777bhPHzqmFmBiNbceBHk7t07VrVyNQuW/WlbGw3KfbUh4qHJSh6OdgBe9JDsZwAICJ2IIJV67ntWLiMOJcaw5a8Drz+3SXDhcOLjFpFgeouD8Kcgp9vnqTugkRTYqkpKREPaXasrf6YNxSIOayx/H4JVnH7GRJUjwmvzQOcxNsxVuuEbr2ug1dTvElxMotdJHKapRZCCGEiDSO+6j7lYWugc6r497LV7qR0goohBBCRAp6MHBQieEjHJDhq5P8z3l1Bk28rwWFfG/x9cM79dE+e+qjaf7zmwkhhBBCCCGEEA4FS/gafFMfPXBzSziJ4pOyyCYohBBCCCGEEOLYJk+Eb9PrB+PW9vVRKRJHS1qNuNEDMfCtJUjm+xIxaH32yeYjIYQQQgghhBDCS57E+EaGVCQunoiXmNTKzohesfHVuLdPJ9QJPkVeWCjGVwghRF6jGF8hhBBHm2MhxjfCwpfidDre/uon/JuQbL0rgbIxtXFO59txdWw1MydvOPy9dT++XLodi37fgF//Scbew74sfaWKHkL9OlVx2ZnVcEmL6jipZvgZ5gIh4SuEECKvkfAVQghxtJHwDYe0BMx9eQQmrzEOyJkoe0oPDLi/A2JCcHem4B31xQZ8smSrvSZrrmhZE/0urZtrASzhK4QQIq+R8BVCCHG0UVbnLElG/OxFSDBux6mIf98RvSUQc+7VuLXvYAzueyuuPjfGWHqT10zGiPfjrS0tLJG8aHa8L0bXw4cLEtDxiaUhi17CbfkdflcIIYQQQgghhHBTbMiQIUPt5TBIxrK3/g9jZy/F3BVpOLPhZkyd9BuSUBbNb3kSD13aGCfUqIRKNU7ASWeehzY1NmPR8gQkb0pA2bNPRPyYpzH9x5+wIOEEtDurVroL9CtxG/DEtL9hD3qHBb8za8UOlChWBC0bVrLXhsf+/ftRtqyTK1oIIYQ4engtwE7Zs2cPatWqZT4TQgghIkFCQgKqVKmSycLrLcT7WlDIocW3LBqd3RQV+e2NcRj21HRs5OqYTugaW5FLflSM7YpOMVzaiOlPDUOc2Zj7aJQ+JdGHCzbh+U/X2+9yDvchy68QQgghhBBCCIccuzqXbXYrHr+7NapxD3aWZZTZjQ0/LcGSTGUDdjvht2bbsmh+11Po1cwnexnTO/iDv8xyJBj84Z9mn0IIIYQQQgghRK6TW6376CE8/13ghFbBKHv+w3jhmvr2O6Dv+NVhxfSGAhNejb61kf0uNJTcSgghRF7jdml2XlmU3EoIIUReoeRWIbArKTzRS5KTdtlLPmtvpEUv4T5l9RVCCCGEEEIIkWvh6xBz2eN4/fXXsyyPX2YCff3gPL2hUje2IaY/fwH+e6aJvSZrwtm3EEIIIYQQQojCSQ6F7zKM69MHfawybqm9KhyWjjPf7dNnHL5Zu9temQWn1cM7j7XHgrvqoW310Kv8Qyj7FkIIIYQQQghRqImYxTenbNi8z17KghOq4Zyah7Hiu+3YYK8KhdWh7FsIIYQQQgghRKEmh8K3KXoOH47hVrnxDN+a5OQw4mnPuNF8d/jwnti9J9VemQXf/ILT712ISyccxAF7VSgkhrJvIYQQQgghhBCFmhwK3xIoW7EiKlrlpHq+uN2kP/9CklkKRjL+Xu2bXzem3knmuxUrOrP4CiGEEEIIIYQQ0SHXrs4xDRrByNf1cZi5yqwKzKrpmL6GC2XRqEFGkqtqFUrYS5EnmvsWQgghhBBCCFEwyJ3wTVyEV8fNhW9Co2QsensUZm3M7F6cunEWRr29KH27uS8PQ9xm8waNji/nW4gC0dy3EEIIIYQQQoiCQc6FL0XvsxMQz/xR5eqgTjXrdd9qTB/2EJ54Kw6LfluN1b8tQtxbT+ChYdOxmttVs7ajFk3biE9fHIW5lvg9t2Ela0V0iOa+hRBCCCGEEEIUDHIofBMx621H9DbFjYMGY/DDt6JlRX6WioSln2LC66Mw6vUJ+HRpgrXGomJL3Pqwtd2gG9GU4tcSyZMnzkLrFtX5aVS4JIr7FkIIIYQQQghRMMih8K2GTvfeg9b1m1ui13qltZfC9tnh6NetJepXy4itLVGtPlp264fhz9rCuFpr3GOJ3+b1rdd7O+GsmmVwRcuavo0jCPd5krVvIYQQQgghhBDHNkVSUlKO2MtHjb+3/n97dwIv1fz/cfzTrn3Vnja0CIUWFVmyxK+Q/Uf8hEj4Zw1RskSIEJFk/Ul28iuSyJIluSVKKpVSad/35T/v7z3ndu40t3vn3tu9M6fX8/c4vzNz5szcc85MZt7n8/1+zyY7ud9k27EzdzalUMEC9nnfo+MOvitWrLCKFZXiAQDIG7t2pX73Beeadu7cmTbXtGPHDjdftGiRNWvWzK0LAEBuSElJsbp161rBggWtUKFCbq6pQIECaXNNEj1PFjke1Tk3KKD2v/hg717O6bWo9gIAkJz+97//Wbdu3WzNmjXeEuSGtWvX2u23324DBgywzZs3e0uRW7788kvr3LmzTZkyxVsCIJEkRPCVi9tWtds71fbuZZ9eQ68FAAASiyrYf/zxhz300EPWqVMna9u2rZtOOukkGzdunLdW8lDA8fchuC8333yzTZ48Oa2KnyjUakBTfpo3b56dd955exw3Tcl+smPLli3eLQCJKCGaOgeN+GaJ3TVidtzNntW8WZXenIRemjoDAPKaH46Cc01ha+qsfRk9erQ9+uijdthhh1nr1q2tdu3a9ueff9r8+fOtRYsWdtppp7l1VfH98MMP3bplyybuFRoUfK+//nq74YYbrH79+rZ161b7/fffbcKECW6f7rjjDjv99NO9tSEKvrfeequdeOKJ1rJlS29pqqJFi1qjRo2sSJHdY8XszbZt2+yjjz5y1etLLrnEWwogO2jqnA8UXNU/N54Br7SunkOlFwCAxLRkyRIbMWKEdenSxZ566ikXVFTlu+yyy+yee+5JC73JqEGDBnbMMce4MN+1a1d77rnn7IQTTnDhXc2Lsac6deq4YxacjjjiiCyHXtHJoF9//ZVjDCBLEi74ivrnPnVFA/uy3zF2e6c6dlyj8la5bFFX1dWk21qmx7SO1qVPLwAAieuff/5x1b6jjz7aVRPCrHjx4ta8eXNbtmyZrVy50lsKAMhPCRl8fQqz13eoZf+9sYn99HBLm/tMWzfptpbpMQIvAACJr3Tp0lapUiWbPXt2WrPuzKjpsJpHX3zxxa46fOWVV9oPP/ywx/PV5FV9hK+99lpXadWk21rm92mdPn26nXrqqTZx4kR33+f3OX311Ve9Janmzp3rBiqKXj+r9He1zyVLlnT31XdVfVjVjDuamkxrG7Qtoqa7/fr1syFDhrjgrAp5hw4dXP/h++67z5YvX+7Wk+yu6wtul5rR33vvve65eo1nnnnGNmzY4K2ZSs3tf/zxR7vxxhvdcdZ6w4cPt99++83tQ6z9i5deS6/7zjvvpHuv1Xxcn4XXX3/dPv74Y2vfvr199tln9t///jetn3BwYKlZs2bZ3Xff7fZHk25rWZA/kJpOUkR/1vRawb+vPrxvvfWWXX755W4dbeOTTz5pGzdudI9Hv48+HfeRI0emPU/bEqsfeLzvhfalT58+7nF/m3/++WfvUQDREjr4AgCAcFDT1o4dO9rgwYPdj/jMBjFSyHjxxRddYO3Zs6c98MADrlKsgbGC4WXTpk02cOBA69+/vx155JFuxGLdPuigg9xzXn75ZRdCa9as6fqPTps2LV3YUMBVM+wZM2akBRhReFH/4kMOOcRbknUaM2Ts2LGuul2hQgVvafwWLlxoDz/8sFWrVs3uv/9+F+a/++47e+KJJ9x+B8WzbiwKmzpuxx57rD3yyCN2zjnn2Ntvv20vvfRS2skDHbcxY8bYXXfdZVWrVnXrq5m6jp/+Zm41OW7YsKFdcMEFrqm4AqBoGz744AO3fxoYTcdW23nUUUe5ADxo0CA36XMmCpUK58WKFXOfA016DS3TvgZl9FlT8FQfdNHJFZ1UeO+99+zf//63+1s6xkuXLnWPZUSfBR0vhfOTTz7ZPU+vW7hwYbvllltc2A5+HiUr74XWUXguU6aMez2tp8+qtgdAbARfAACwzylIqD+vwoLCw0UXXWSvvPJKhgF4zpw5duCBB9pNN93kBkFSdVGDIsn333/v5jJ+/Hg3mJQGwurevbtbV31t77zzTrvttttc1VCBRtXXxo0bu8Gn/MqZAsukSZNcVe2vv/5KCw0KF1OnTnVBuVy5cm7Z3sycOdN++uknVx1W/96rr77aBUP1Z85Js25V7y688EI7//zzXR9YzVXV0zYrsAfFs24sGthGQUx9rfV8PVeBS8faPy6quCp8qSraq1cvd5w16fYpp5yS7sRBZnQCQ1XK4ORXi3XMFG514kHBUO+Hqqm6XJC2S2FPAVihV4OSVqlSJa2fsN4vVb61nWeffbYLnf52qjqqz4f+TjCs7u2z9u2337q5wr3eY4Ve/xidddZZrqquz1Ys2m591hcvXuwqw/r863nHH3+82399PlS99sO9LyvvhT5r2m895n/m9T7oJACA2Ai+AAAgT2jgIgVehVGFEgVf/fhXuIiuelWuXNkF0mBw9Ku2fnBV0Prmm29ckNDASEEabbRNmzZu5GgFBt1v2rSpC4F+0Fi9erULc2eeeaYLL35AXLdunQvIClZZGWzp6aefdpVCXSN31KhRdt1117nAldMRqTXStUbA9mkfFN4luoobz7qxKHj61VLRcdcx1TFWU11RlVHHQyNVB98X3dZ7pfcsqxSe/SqtP+l4+xRo9dlQc3WFelVMzz333LR92hu9d3pfNXJ0cDvV91p/Q83tgyE91metevXqboRbfRb02dRz9RnRCZFgk2M9RyPexqIAroCq4xU8tqLnqQKsAK4BuoKy8l6o28Dff//tLg/m/9vRe65KMoDYCL4AACBPqfnvNddc4/pLKrD17t3bVfOCtE50tVUB44ADDnBVLwUAhQY1JT344INjBlStq8qgBtZSf+F69epZ+fLl05pKa67qocKUmtcq1KhKp2CswKPXzQo131YAV3VSFTc1iVX4yilVjbUPQSVKlHDbrApkUDzrxqKgpeAUpGOlY+1X5VUV13paHk3PzSgAxqLX8au0/qT3KkjLVMnU50NUBY7exlhWrVrlJo2wHawoa1KTYAVSPe5TiIxukq4Aqc+f+kirKbSCuMK6Kujqx6t+0vqcRJ+wCVJA1udITZBjbbeOo/6ujmtQVt4LVaV1fFQZ1iW1vv76a64jDGSC4AsAAPKFAod+uOtHvK7Hun79eu+R1JAbT5DKCgUZVYxVuVRoVn9f3VclT/2DFVYVVFQRVB/heCqYopCppqcKzMOGDQvlZXZ0rd3cfl/2RsdUlU7N47nUkVoHqN9xdFVZk4K0mjbHQ0FUFdo33njDNWVXKwI1e/b7kOc1BWENVPbCCy+46nTfvn3tqquu2mNgLQC7EXwBAEC+URNShU5Vx+INEApCqsQpqAb7bPpUFVb/SoVYBTatr8sMaSArNWtW8FXVTFTxVVVYwcFv5qyKabwU0NSXU3/jq6++2qMiGN2fU9RkNRmoCqrqpE4ORNOxy+2Ko/r1qj+uRmNWP9zPP/98rxVWn943fZ5q1KiRVk0OTs2aNUsbbTtepUqVcqN968RGjx49XHN9fY5i0d/QSRW1LIi13ao6q/qc1ZYF0XQCQiduFOS1Hfq3pLnfHBpAegRfAACwzylMaqRdXQ4nSP1P1cRYFTiF03go4KiptALmL7/84i1NpaChvsMKlRoB2Kd+m6ogqmKnEX9VGRRV0NQfWCMhK0gH+8vG6/DDD3f9OtUv1W/G6od0jRIcrGzrtppJJwP1M9UJg+hLSumkg5p5B5sP55SasGuAKvW/1sBZGrhL1dVYA3VpXQVv36GHHuoC6hdffJFr1Vh9boOfXb2fCtFqqpzRfusxffY++eSTPSqx2i4FeYVVbW+8ok/06HOsE0jqt759+3ZvKYAggi8AANjnVIX6v//7P9dMVNd9VdhTMNQyBSlV0RQC4qWAqUGsNIKz+l3qtTSgkEbN1aV8NIp0cEAk9YXV/aFDh7rA4Y/Iq/6xWq7L9SiAq/lodmkwIg3eJerHrJCikN6uXTsXrB988EG3jQrsaqIa3b80USlY6VrIjz32mLsklY619kEVWQW5eJqGKwhqlOToScFNr6UB0DTXJbB0PNUcXn1ldb1lf7AunbjQ+6kTHAqXGghLgz3pvbv00kttxIgRbnRvbaNeW3N9Jj799FP3/HjoBIYGMNMllvRaev/0GVLz+YxOkmi71S9YJzz0Ode2+9uh7dI+6jVVmY6XTgro8lXaDr2mXkv7pX8L2a1mA2FH8AUAAPucwoEuOaRLsOiapHfccYe7Lquqo7qGarAqGw+FZYVeBQhVcdVnWEFMVV2FnDPOOCPdQEF+wFWzXV0GJviYtlEBXduU0xGZ1bxaoxCrqa4GRBJVLrXfCn0aAVr7revVanky0LHT8dWo1Qqbuq2mtdp+Bf14+v4qlOo9i550bBSo9RnRqM7qBy6q4Krqq8f8Js9673T89D4+/vjj9uyzz7p1tbxDhw5uICu9n7qMkV77+eefdycg1NQ5XmoRoEGn9J7ptRQ6Fbo131vgV+jVOvosaMRvPVcnZbRfOlGT3c+9PsM6Vho9XJde0jHRvwNd9ij4mQawW4HIfxAy7yyxn1BTGf0HCgCAvOI3GQ3ONalZpT/XpOqX5uojmp0f7sC+pCbICsIarVvXnwWQXHT9aHUF0QkstVbQXJNOpPhz/6RK9DxZUPEFAABAjmjwKfVXrlWrlrcEABILwRcAAADZphZzarbepEmTtMHCACDREHwBAACQKV2XWP1VNSiZ+tpqUKWRI0e6y/osWbLEunbt6i7nBACJiD6+AfTxBQDkNfr4IllooKh3333Xxo8f75o267I51apVs/bt21unTp3cbQDJaX/o40vwDSD4AgDyGsEXAJDfGNwKAAAAAIAkR/AFAAAAAIQawRcAAAAAEGoEXwAAAABAqBF8AQAAAAChRvAFAAAAAIQawRcAAAAAEGoEXwAAAABAqBF8AQAAAAChRvAFAAAAAIQawRcAAAAAEGoEXwAAAABAqBF8AQAAAAChRvAFAAAAAIRaYgXfDdNtePc21qBBg6xNbW61d/7c4j0ZAAAAAIA9JU7wVei99WobMH65tyALlo+y3l16E34BAAAAABkqsHnz5l3e7Xw1/fk2ds7jy+3U+0fbg6cf6C3NxJTh1vzqIWaVetr733a3xt7i7FqxYoVVrFjRuwcAwL63a1fq13Bwrmnnzp1pc007duxw80WLFlmzZs3cugAA5IaUlBSrW7euFSxY0AoVKuTmmgoUKJA21yTR82SRMBXfrdu9Sm+JslamTJmsTWWLpT4n8tStqbcAAAAAAEiHwa0AAAD2M2vXrrXbb7/dBgwYYJs3b/aWJq4vv/zSOnfubFOmTPGWAEB8CL4AACBPqOn2H3/8YQ899JB16tTJ2rZt66aTTjrJxo0b562VWIYMGZK2ndHT//73P2+t5KOm85ry07x58+y8885Ld0w7dOhg9957r2vSH7RlC+O5AMiZHPfx3bJ2rWX5P0WFyliZkt7tKFOeaWAXPmV26sBv7el/VfKWZmLqEGtwwaDIjZ42cmZ3a5q6NNvo4wsAyGvBvr3+3O/b68/D0MdX+zJ69Gh79NFH7bDDDrPWrVtb7dq17c8//7T58+dbixYt7LTTTnPrqqr3ySef2HXXXee6NuWmv/76y1577TW77LLLrFatWt7SjCn4fvXVV3bNNddYqVKlvKWpatSoYdWqVfPuZW5f7lcyUvC99dZb7cQTT7SWLVvaxo0bbdq0afb5559bsWLF7OGHH3afkUTB+4cwo49vJhZ+fKud1Ly5Nc/qdNSFNmQqZ+wAANjfLFmyxEaMGGFdunSxp556yi655BJX4VMAveeee9JCr/z9998uEPsnA3LTypUr3Q+8eKqdpUuXdicbjjnmmHRTPKFX9uV+JbM6deq443n88cdbjx497LHHHrNt27bZhAkTvDUSA+8fkNyyHXwVei+8ZZTGlYrDFBt0HZcfAgBgf/PPP/+4Ct/RRx/tqglARtT6rkKFCrZhwwZvCQDkXDaD7xQb5YXenm/NtJkzszZ9O/DU1GvvjpmR+jIAAGC/oKpppUqVbPbs2RlWzPw+n+oDPH36dDvzzDNdVVjNjUVNvX/88Ue7+eabXb/gE044wd3Wb4wg9b3t1q2ba0L95JNPunUHDRrkll1//fWu+nzppZe61+7Xr1+OBnfSIFHahjvvvNPWr1/vLTX3mv3793eP/frrr3vdL1Ef1rfeessuvvhi95jmuh/s26qmtnqduXPn2vfff29XXnll2rrqI63jEzRr1izr06eP6zer9bT+zz//7B7T9mnfg9sgem/UDzv4vPPPP9+GDRtma9as8dZK/3xV0VXF1/o61vfdd58tXx5faSRIx3HdunXWsGFDb8nufddnxOcfs8svv9xtp/6+3m81mfZl5bj61I3gkUceSet/rvmbb77pPrOZvX8AEh+DWwEAgH1OzVk7duxogwcPtmeeeSZdiPIdeOCB1rt3bxdO1P/2gQcecIHVbwb9yy+/2B133GGHHHKICyEaBEkhSXOF3CAFp1deecVOPvlk12dUTWgVem+44QYrX768C6p67QsvvNCKFCniPSt+6uup5toKt5MmTfKWmguY3333nQub6je3t/3atGmT6/usQHbBBRe4xzSC8euvv+4CpZr9+hRu33vvPRs1apR7bQU1/zWDf/+3335zoVvbp+Oj9XTcli5d6q2xJ4XeTz/91K699loXbP1jpPfto48+cvug8VCCFi5c6Priqtn3/fff756r/X7iiSfcfsVDf1/h87nnnnP9wFu1auU9sicdEx0bHYt///vfbjv1t7V//vGK57hOnjzZHU+FXH1GtK7m+hzp87K39w9AciD4AgCAfU7NmxUQFU4UVi666CIXTIMBuGTJkq4vrUJysF9tvXr13OMlSpRwwbl79+5uMCRVfG+66SYXfqdOnerW8S1YsMANoNWkSRM3AIvC7RFHHGENGjRwAycpWOm1VVXMrOl1sMrnT6oe+9t++OGH29lnn23vvvuuq35qeuONN1yobty4cab7NX78eFfRVDg955xz3GOqsipsff31165y61OwU6C7++673f5p0gBRei31ifXD3MSJE61KlSouzOlYab1evXpZ+/bt3eOx6OSBKrvqf60TC+pzq23R+6ZKqkLvxx9/nK5ir4Cv/dT2+tutv6kQrsp0Vuhv6Zged9xxLqCWK1fOnagoXry4t8aeVLX/6aefXOhVANXfPuuss1y1WcdYsnpc1XdXQbZNmzZuP0855RS3ruZXX321a3q9t/cPQHIg+AIAgDyh8KnA+84777igqOCrwa6+/fbbDJs/Bx166KEuSAZVr17dVRsVXoIqV65s9evX9+7lTLDK50+qHiuIi4KzQpcGzFJ1WU2tixYt6prKZjbqqZrlfvPNNy74RY9grP3VfkQHSDXpDYZCVSQV4NUn1h+0S83KdUzUbNk/ttqWwoULu9uxKKzqPTr99NP3OBmg0KcTDWpirSqoT6Nx6ySCT3/Df4+yWvFVJVXHdODAge6khgaQUvNlhfeMaP8VQnXCI9gXWNutEWjjOa4Kx9u3b7crrrhir2EbQHJLmOBbukzqxYgWfvW6DR82PGvT+ynuOZVOOtCyeAEkAACQzzRwkS4PpCaoCk6qwH355ZfeoxlTgFOlTxVjhSRVXRWcVZGNpr+hymFuCFb5/EnV42ATaQVNbcsLL7zg9ktVz6xc8kYVWlVSdTKgXbt2aRVlTWpi/Pvvv7tLMPmqVq26x6UXtR3axsWLF6f1XVVI1XbecsstLqSrwhmrX2uQ+uUq4CpIR1OgrVmzpqtmB6v02p4DDjjAu5dKJwS073qvskJ/U9uqyrSqzWqGrAr7888/7/YpFh0DBWaFdfW/VX9bNZP2Q348x1XzjPYbQHgkTPCt3+VVG3ljU5v+4RAb8OiArE0jJkRCby974bHzrKb3OgAAIDkoLCqYKaSpD2lwcKhoqmS+/PLLblAqhWSFFN1W891YlV3/GpR5SYFPFUc1pY63cqgmuMGKcnDKTl9SHR8NPqUgrqp437597aqrrko3OFSi0jFUCJ4zZ44bDTwWBXH131aTcjVHViVazZ71GQleqiqrx1UV+rz+vADIWwn0L7yYNe0RCb+3nWqt2rTK2tS5TyT0drXGJb2XAAAASUUB8cgjj0zXTDcW9dlVE+KePXu6fphdu3Z1fVDVrDZYec0vqi6qf+y5557rqtivvvpqlpr6KuSpD7AqldFVZX/Kbl9SBblGjRq5irqaletYa57RKNY6EaFgvGrVKm/Jbto+DWSlEJ1IldFSpUq5Aat07NUvWPs3bdq0uI6r1lPIjrXfAMIjwU5tRcLvVU/bK8Nfydr00CWEXgAAkoCalmrk3OhL7igcqp+mRnRW1c2n5rS6VJBPt9UUV/15g/1mZ8yY4UbijYdeJ/jaOaXA/sEHH7iwpeCrprca5Vn9ff2mt77o/VLoatq0qeuPGj0ydU4ERywWNVPWCYbVq1e7/qyxHHXUUe79+OSTT/Y4CaFArEq7rsOsbd6XtO36W6rka4CuWPQ5Cn6WdPJDYVZN3BVg4zmuGj1arQ1Gjx6915MvEv3+AUgehe6+++57vdtxWGI/DX7Hvo/canX+Dda8aurSzGz8Y4wNHzvHrOX5dkOLLD4pD+k/9v5AFQAA5Cc/MGkenDSwkMJfslG18MYbb3QDFqk6qgqv+p3q0jXqo6tq3UEHHeTW1cBEGiFZ+6uQq9CsS/FoBOEffvjBhRqFGwUVDYylAKQBjJo3b+6er9F6dW3fU089dY/+p6p2KgxpdGS9ji77o1CY0aBPGjlYr1ejRg0XmNWP1J8UgFT91DpqUqx9OPjgg13fYoVgXTZH2+RXSGPtl8KdBs/Sa4wcOdKFPk16fe3bhx9+6PoTaz/UZ/arr75y+xXdf1nP1+P+Pr/44ov22WefuaqvmgvruKtvtPq3KgAr4On1dQz846btVN9c9ZfVtqnJ9rJly9w1gh9//HFXOVXfZYVMhefo5/sUrseOHevW10BSGfHX09/Vdqqqr5Gpn332WXdJJI0ArvCqYxW97wqzar69detWF1oVzEeMGOH2S02eVQnO6nFVWI613zpRo7+pwbv0+Yj1/jGyM8JC/8b0b1Gfbf171DzWJNHzZEHwDSD4AgAShX5c+/PglKzBV4MR6dJCGmlYlVCFVt1Ws2Bdm1eXGfKp+qvgooGJdF1ZPU/hSusoqGrwKIVmLddgSApJOiZZCb5ly5Z1r69m07oWrgZn0vMUVGNRcFJQ1qVxVAkNTvrdoKD72GOP2bHHHutGqvZ/MGp7FNQ1qrL6qyosxtovhSr99lDVUQH+/fffd5PCmQajOuOMM1y40uvGE3y1bVpXoU/hUp8bBUk9rteKFVy13TrBoMqvmgur/6yOk4KlLmmkPtX+8czN4Kv+uTqeuq1rNWuEajXP1mfD/2Edve9arlGZ/eOlkKogq8tbacRmyepx1WvpfdR7ob//5ptvuvdHJ1d0iSV/vYzePyAM9ofgW2Dz5s3p2+BkyRQb0uBCGxS51fOtmdb9yNSlmVn+8Q3W5paxZjeOtJk9UkdxTiQ6Ax09UiIAAPtSMOD6c036se7PNamSpbkqVgoUAADklpSUFKtbt64LvToRqLkfgINBWPbb4FvzyFZWs1Tq0kwtm23f/7HcrHZTa1Uz/RnYjNW3jnf3svPqFfPu7zsEXwBAXiP4AgDyG8E3Q7uDb56o1M56DXvaujbat+GX4AsAyGsEXwBAfiP4Zmh38D3v3lesYxb79a/9YYjd8Mz3Zhf0sVf+tec192KbY6Muu8/esabWZ9RIuyTjriI5RvAFAOQ1gi8AIL8RfDOUl318s/e3soPgCwDIawRfAEB+2x+Cb4JdxxcAAAAAgNxF8AUAAAAAhBrBFwAAAAAQagRfAAAAAECoEXwBAAAAAKFG8AUAAAAAhBrBFwAAAAAQagRfAAAAAECoEXwBAAAAAKGWzeBb1KxS6q0ta9ba2rVZm9ZsTH1O5EkxH489rbEt7kmRP0hMBwAAAADEqcDmzZt3ebfjsuXPd6x3l942arm3YJ+qZB0HjrTH/lXTu79vrFixwipWrOjdAwBg39u1K/VrODjXtHPnzrS5ph07drj5okWLrFmzZm5dAAByQ0pKitWtW9cKFixohQoVcnNNBQoUSJtrkuh5ssh2DbVYvfPswdcetI5e5XffyZvQCwAAAAAIp2xXfMOIii8AIK9R8QUA5DcqvgAAAAAAJDmCLwAAAAAg1GjqHEBTZwBAXstOU+eiRYu6dQEAyA1bt24NfVNngm8AwRcAkNeyE3zp4wsAyE308QUAAAAAIMkRfAEAAAAAoUbwBQAAAACEGsEXAAAAABBqBF8AAAAAQKgRfAEAAAAAocbljAK4nBEAIK/tq8sZPTNmvn04aYnNWLjBtm7f6S0FAOwPihYuaI1qlrSzmle1Hh1qe0szxuWMAABAUpm3dKOdet8Pdt/bs2zqvHWEXgDYD+m//foO0HeBvhP03bC/I/gCABAi3Z6b5n7sAAAg+k7Qd8P+juALAEBIqHkzoRcAEE3fDfqO2J8RfAEACAn16QUAIJb9/TuC4AsAQEhoICsAAGLZ378jCL4AAIQEA1kBADKyv39HEHwBAAAAAKFG8AUAAAAAhBrBFwAAAAAQagRfAAAAAECoEXwBAAAAAKFG8AUAAIho26iCTRl4nH39wLHeErPzW1ezOc+eaO/cepS3ZO+uPe0gm/bE8bbkxfaWEnmtVoeW8x4BAOQngi8AAMgTCpQKkQqTYXR2yyp207/qWolihezTKcts6ty13iOJ6ej6ZW3yo23tzyEn2hUn1fSW7unkwyvar4OOd5Nuy7+Pq27j7m1p85470f4Z3j5t+nFAm7Sw759I0KTbpQ4oZKPuPMadFHjtxiPdOtEeurSBLRp2sn3ap4VbHwByC8EXAACEQtO6ZVywUmjKD20bVrAyJQrbR5P+scufnmr/GTzVvv9jtfdo4pk8Z439tmCdlShayFoeknFl+tgG5a1cySI2Z8lG+3zaCrurc317+NKG1rB6SVu4YrON/nmp/TBrtXt8565dVrhQ7J+X6zfvsBfHL7A1G7dZy0PL26XtaniPpFKoPuOoyrZu03Z75YuFbn0AyC0EXwAAEAqlDihstSoVd0EuP1QuW9R27NhlS1Zv8ZYkvgm/rbRNW3fY4bXLWP2qJbyl6bWKhNSdO3fZ+GnL3cmFzq2q2uZtO633G39Y297f2RWDf7FOD/1kre+aaK3umGjfzFjpPXNPH/zwTyQoL3PV3C6R4Bus6nY79SA7sExRF67f+HqRtxQAcgfBFwAAIBfkV+DOiS9/W2GLVm2x6uWL2QmHpTZjDurUvIodUq2ELVu71b75fVXkdkkrX6qo/RMJ9698udBbKz5DPp1v85dtssNqlrIeHeq4ZTeeUcdaHVLeLR/08Vy3DAByE8EXAADkGw0apX6/V55cy96O3P7r+ZNcX1H1O338P43SVQRbNyxvo3s3T+tXqr6g3z3U2k45opJ7nXdvO8qqRQLcodVLpvU5feKKxu65JzapuMdzJ/Zvbecdm/P+xr3OqW8Lh55kxzWuYEUKF7SbO9Z1f0PbFBww6/6LD7WZT7dLt13av/suOtR+eeI4t016bEHktb68r1W6bQu+jgbQmvr4ca6vrP7u6z2buuAaXO73k9Ux2xs1T542f60Vj4T2dodV8Jbu1rZRedd8W82iNa1ct9VViCuUKuKaJWfHH4s22IivF9mOnRbZx6quibP2Vc2kh3++wD0OALmN4AsAAPKVuoRed3ptq31gcfvf5KX2Scoyi2Qgu6BNdev5r7puHQ3E9GTXxtbkoNKuP+nbExe7eeniha1cJISpcvnhpH9s9YZtrqmxHnfreH1sFS713JS5a91yzetULm69z63vQmVOTJ231t75fonNWrzBtu/cZV9PX+n+hrbJp2bQ7SMBvd9bs6xK13F200vTXeh9sccR1u2Ug6xI5CBoQCw97/e/N9ghkfDe/5IGdvkJ6QedKh/Z1x6n14mss971JV6zcbsLjoO6HmY9z6zr+ty+891im714ox1Zu4z1veCQdCcPYhk7dbnrd9u4ZinXlNmn5x1Vr2wk6O607/5Y5ZapGfIXv65w2/HEFY2sTxZeP5anRs+z72etshoVDrA7Oh9s9auVcE2kXxi3wFsDAHIXwRcAAOQrVRvXRgLcpU9Ose5Df3UDQ70+4W/3WDuv+a2a4VYtV8x+mrPGLhyYYtcP+83OGTDZOj8y2b6NBKbBY+bbq1/+7UKaXkuPa3rz29S+ompCe/PLM9xztPzCgT/blEj4VZ/S4xrtvSqaGQX1nsOn25JVW2xXJPhOimyj/oa2yad9fPObRen6rqqZb5sG5W3GwvV21sM/ub6yet4p/X6wZyLB8IAiBa3LCen7wWqQqfciIVvHoNtz0+yh9+fYuk077PjGFWzaX+vcfuk1bnp5uv29crPVObC4nXR4Je/ZsY2NBO4FkcBcuWwxaxd5Hd+/jq7inr9w+WYXyH13vv672xft03Wn1bbvHmpjd517cNwBeOjYv1wT6iNql7alq7fY858RegHsOwRfAACQr7Zt32ljpy5L18R18p9rbMPm7ZFwVdAFqpXrt9q2HbusbpUSdnqzA721UpvNqo9qZhSqVQn1acTgmZHnqmmyAt++tnrjNpsyL/3ljY5rVMEiOdk++HHJHs17VRGdt3STq4Kf2nT3/uo4jP91uXfP7LuZq9wyNT9WAPdHQlazZIX9A4oUsoMqHeCWZUTPmTR7deRYFLDmgdGdT2hSwV2aSZXZ4AjLuu1OIjwy2T6fttzKlijs+uiO7p150+qg0pHnKdxL0cj7UKZ4YXcbAPYFgi8AAMhXW7bvstlLNnr3Uq1cv81VbzVSc9O6ZV3FceLvq1yT4eE9jnB9XW+IhK2sVhnV71eX4Pmsb0t3Pdq5Q060i9tW9x7d91SFVhgNUmDUpXtm/L1nn1aFy6VrtrhgWLfy7tGW12zY7kZi9qmP7rbI8VOAXht5rSCNxKxm5CUjxzAzX/y60lau22aNapRyzco1wrNGetb2fTMjtZlzNO3PJYOm2EVPpLhm5zrGao6u52dG71v302q7qvFX01e6ptNXnlwz7qoxAGQVwRcAACQ8BUFVba9+dppr7lyr0gHW+9yD7aM7j3GBa2/UT1bX973shBpWqUxRW7B8k6uO+v1W84L6LAerpolGzZ118qGK1xdZTcs1YJb6G6sv8d7ohMQlg1Ls299XWs2KB7gBqzLT+7yD7fCDSrv+0fe/Pcv1SW5+cDkXhgFgXyD4AgCApDH656XumrHnPvqzC8CNa5bONCx1PKaylSxWyPW5bXbL19bhgUmuL/GC5Zu9NfKHBqbS4FyNauwZ3FX5VBPsjVt2uEGz8sLEmaknAprXL+tGeFYzcDWBzgqFeg0YppGa1bx6b85uWcU6t6zqqskvjl9gv8xf55qhpw5oVi1LFWMAiBfBFwAAJDz1ddXkUzNbVRi3R5JWxdJFvKWpSkXCZKtDd/dVVZV3645dNm/p7ubUqhI3Pzh/A9b3f6yyggUL2Nktqu5RtVafWY06PW/ZJhs/bXef3n1p3C/L7Z81W62RN7qzrtU7JmWZ92iqzq2q2shbmu3Rl1dBvZk3IvSKdVvdPBa/ibMC/+ifl9kHP6RWk9WnWSG7VsXi1vPM1Gv7AkBuIvgCAICEd1Hb6ja2Twt7v9fRNviqw2zotYfbpcfXcANe6fJBMmXuGteXVs11e51d313f9t4LD3GX/ilRtJDdFlmm52l67/ajXf/S/DTo47lucCoFzQ/vOMZeuv4It2/qh9wjEnxXrN9mj7w/J8+aSOtkwozIsapYuqgb7Vq3o/slF4oE9WPql3PXXP5xQBt7/f+autsTH2ptbRpWsFmLNthbgRGgo/lNnNW0ecinu0e9luHjF7rQrMtLXd2+lutnPL5fS5v/3El2S6d6bh1d//jvYSfbiJuaufu3nVXPPT7u3pZufQDICMEXAAAkvD//2WirN2y3FoeUs/NbV7Mzj6nsBnN68N3Zadd+VUB8bux8d4mcYxuUtxMaV7ACkf89PmquTZi+wiqWKmJntahipzatZD/NXuOW5Sdt7xWDp9obX6deuqlDs8pu3xTg1G+2xwu/uuvm5qUvIn9PI0Rv3rrT3Y425uel9uLnC9yI09XKF7NTjqwUCbzlrWCBAvb2d4tdX9/oEap9fhPnLdt22msTFu6xnpqx65rCxXQZp3Y1XcUbAHJLgc2bN+/ybu/3VqyIfClWTL1eIAAAeWGXOjZGzTXt3Lkzba5px44dbr5o0SJr1iy12hWtStdx3i0AAPb0z/D23q30UlJSrG7dulawYEErVKiQm2sqUKBA2lyTRM+TRY6C78Y579rgYT9afpwvLVHjDLvmunZWNRdr1gRfAEBeI/gCAPIKwTc7lo2x/n0+stTGRfmjxPG328CL63r3co7gCwDIawRfAEBeIfhmx5Ix1q/fR7bESlitI5pYtTzshrFs9o82V2Xmo7vZkKtif/lnB8EXAJDXCL4AgLxC8M2OtOBb1Tr17WsdMr9Wea5JGdbdhk6O3CD4AgCSXEbBNxh6Cb4AgNwQb/ANht5kD76M6gwAQBJIth8YAIDkE+bvGoIvAAAhUbQwX+sAgNj29+8IviEBAAiJRjVLercAAEhvf/+OIPgCAJAAstK8LLN1zmqehwNuAACSSmbfEbnxPZTICL4AACQw/cjI6g+NHh1q25F1Snv3AABIpe8GfUdkRTzfO8mE4AsAQIIK/vDI6o+QodceTvgFAKTRd4K+G7IiO987yYLgCwBAPornh4XW1aUltm/f7i3ZU53KJWxsn5bW5/xD3I8dBrwCgP2P/tuv7wB9F+g7Qd8NGdF3in/ZoqxKxlDMdXwDuI4vACA/xLqGrz/p2r2a+9fxXbp0qVWvXt3Kly/vngMAQE6sXr3aFi9ebDVq1HABWNfx9U+0ah49iT9PJkl5GrhIYe8GAAAhk9GPC39Z8eLF3YlaAAByw8qVK61kyZJ7/e7x7yezpAy+TS4bYD07NrCMC/YAACS/4A8N/4eHfpxs2LDBnaEHACAn1qxZY+vWrbPSpUvvEXCDt8MgIZs6b1s912ZO/tkmLVhii2f+ZVajoVWrXsuaN2thDeqWsSL+etu2WZEi/r2co6kzACA/qCmzL9jM2Z/UxDk4rV+/3oXfhg0bWuHCNIMCAMRPfXtnzpxpZcqUsbJly7qmzcHJD8LByRe8nSwSKvhuW/ajvfnc6zZx0TZvSQxl6lq78660i5rnfkAl+AIA8oPCrS869PpTdPhdu3atRb7DrWbNmlauXDnv2QAAZE6V3oULF1qJEiWsQoUKWQq9mnzB28kiYZo6r/huqN1970u7Q2+xila3aQtr0VJTE6tVxqvsrp1rE4bfbb2en2grdqYuAgAgmUX/gAj+yPAfC97XjxKdoVez5/nz59usWbNcHy21hAIAIBZ9R6xatcrmzJlj8+bNc98jfugNfsdI8L6/zBd9P1kkRMV3yVeD7NERM22j7pRpYJ3+09XaN9rdpNm3bfVMG/fqcPtoxlp3v8TR3ez+q5rlWl9fKr4AgPyiqq4vutrrT6r0+nP/tkZ7VrNnVX/9kZ8BAIimgKtuoqryqk+vusooxAarvNEhODj5greTSf4H30VjrP+DH9mCyPd0kdqd7LZbOlitvXbb3WYLRj1q/UcvcPdqndXX7jo9dzoYE3wBAPlFIdbn39Y8OAWDb6x59HP8+8F5olGlumrVXBwoBAD2c34wDc6jp+igu7fg67+GL3g7meRz8F1rEx7rZW/Oidws2dp6PtLFGuy18fVGWzB3k1WtW9xSnr/HXpqy0axgE7vi8R7Wopi3Sg4QfAEA+SUYTINhNaPJD7vRtzX5/NvBZb5Yy/IDwRcAciZWEI0OrJoHp2DAjRV2g5P/fF/wdjLJ3+Cb9holrPX1A63LYd7ymPxK7xJrdtVA61Z/gvW/811T3bfWeQPsrpPLpK6WAwRfAEB+yii0ZjYFg2/wOf7tREbwBYCcixVGg6E1+nZmYdef/Of4greTTb4G3xWf9Le7P4xE13Lt7faHzrW63vJYlozub/1GLbBaZ9xlt3WsZUUiQXji4Bvttd8iD9a/yAbc2s5yGn0JvgCA/BQdUqMDbGZTcD3/ti94O5FooBWCLwDknlhBVfPo23ubgusFRd9PJvk6qvNfC1P76Vr9ertD79ofbWiv/jZmkXc/YsUXj1j/SOitePpddpcLvVLE6tXzvigX/2WLU28BAJC0Yv2giP4B4k86W5/ZVKhQoXS3g/cTZcrqvjAxMTEx7X2K/u98Vv+bH/394n/nRIu1LJnkQsW3jDXrfK41zeolBEscZM0Oq+rCa8qw7jZ0slnVjn2t7xleiN22wD56NBJ8/65lnXrfZR2qR5btXGJjHu5nH61sYBfd3NPaaZlMGmrdh6dEbjSzbkO6Rf4/Z6j4AgASQaxKbXCe2W3J6HaiUVPnatWqefcAALkhGFKjb/v393Y7OJfg7WSVC8E3ToFmzX7wtZY9bMh/mriHnUD47XDHbdZJwzz7ywLhd8noftZvlLaA4AsACJdYwTXeuS/6fiIh+AJA7osOqhmF2szmErydzLLf1LlqB7vmggbxX0N39Qpb5l1isFoVL2TOX5A+QBepaLUqR1555wpbssK7GH+RWtapZw9rV6eqVfSqy4sXec+qVcsOSr0FAEDoBH+I7G3ym6xFN2EL3mdiYmJiCv+U0XeB5nub/O+aMMp+xTe7lky0iZtaW2uVfGe8Zrc8NdE2phsga6OlvNzPhv6w3Zpdc791a5pBtN75q7122zM2caNZxVPusgc61/IeyD4qvgCARBKrUhtcllsV3njXz01UfAEgfvGG0+j1Y4XcWK8Z799JZPkQfMfYMxObWA8XVBfYu3f3t3ErIjcP62IDr29tJea+a70em2j1r95L6I1YMqqf9Rutim9OriOcHsEXAJCIMgu2OQ2++UnfvdWr+4N3AAD2hYyCry+z+2Gwj4LvApvw8jj707uXzqbF9uvsWnbFo12sSUGzbVOG2h3Pp9jGyEP+pYps2zYrUiR17OZYNkaec4/3nBIte9jD/2nijfScMwRfAECiyijMxlpO8AUABMUKshmF2zCGXtlHwTfFhnYfGvn/jFU9o6/17agy7UZLGXaPDZ2sGGtWplEn6/qfDtYg1kV5d661mZ8Mt6GjZrrQayVbWI8Hr7AmxdyjOUbwBQAksswCbTIFXh/BFwDyTmahNqyhV/K+4pumlrW+uL01UGjducImPt/fXvslNfzqGr1l6jexZo2bWL0DC5ttWWF/TkmxSX8ssI3eWFdWpoV163uFNYt7dK2MEXwBAMkgpwE3kQIywRcAci6ngTXMgdeX9318M7TNFnz+jA1+b6at9UZ9jq2IVT32Urv+4hZWMTfaNwcQfAEAySgZK70+gi8A5L39IehGS6Dg69m21ub+8JmN/uZH+3PRWq/CW8RKlKtq9ZqfYGec1NzqlsvlxOsh+AIAwiQZAjHBFwD2nf0x4GYk8YJvPiL4AgCQtwi+AIC8UNCbAwAAAAAQSgRfAAAAAECoEXwBAAAAAKFG8AUAAAAAhBrBFwAAAAAQagRfAAAAAECoEXwBAAAAAKFG8AUAAAAAhBrBFwAAAAAQagRfAAAAAECoEXwBAAAAAKFG8AUAAAAAhBrBFwAAAAAQagRfAAAAAECoEXwBAAAAAKFG8AUAAAAAhBrBFwAAAAAQagRfAAAAAECoEXwBAAAAAKFG8AUAAAAAhBrBFwAAAAAQagRfAAAAAECoEXwBAAAAAKFG8AUAAAAAhBrBFwAAAAAQagRfAAAAAECoEXwBAAAAAKFG8AUAAAAAhBrBFwAAAAAQagRfAAAAAECoEXwBAAAAAKFG8AUAAAAAhBrBFwAAAAAQagRfAAAAAECoEXwBAAAAAKFG8AUAAAAAhBrBFwAAAAAQagRfAAAAAECoEXwBAAAAAKFG8AUAAAAAhBrBFwAAAAAQagRfAAAAAECoEXwBAAAAAKFG8AUAAAAAhBrBFwAAAAAQagRfAAAAAECoEXwBAAAAAKFG8AUAAAAAhBrBFwAAAAAQagRfAAAAAECoEXwBAAAAAKFG8AUAAAAAhBrBFwAAAAAQagRfAAAAAECoEXwBAAAAAKFG8AUAAAAAhBrBFwAAAAAQagRfAAAAAECoEXwBAAAAAKFG8AUAAAAAhBrBFwAAAAAQagRfAAAAAECoEXwBAAAAAKFG8AUAAAAAhBrBFwAAAAAQagRfAAAAAECoEXwBAAAAAKFG8AUAAAAAhBrBFwAAAAAQagRfAAAAAECoEXwBAAAAAKFG8AUAAAAAhBrBFwAAAAAQagRfAAAAAECoEXwBAAAAAKFG8AUAAAAAhBrBFwAAAAAQagRfAAAAAECoEXwBAAAAAKFG8AUAAAAAhBrBFwAAAAAQagRfAAAAAECoEXwBAAAAAKFG8AUAAAAAhBrBFwAAAAAQagRfAAAAAECoEXwBAAAAAKFG8AUAAAAAhBrBFwAAAAAQagRfAAAAAECoEXwBAAAAAKFG8AUAAAAAhBrBFwAAAAAQagRfAAAAAECoEXwBAAAAAKFG8AUAAAAAhBrBFwAAAAAQagRfAAAAAECoEXwBAAAAAKFG8AUAAAAAhBrBFwAAAAAQagRfAAAAAECoEXwBAAAAAKFG8AUAAAAAhBrBFwAAAAAQagRfAAAAAECoEXwBAAAAAKFG8AUAAAAAhBrBFwAAAAAQagRfAAAAAECoEXwBAAAAAKFG8AUAAAAAhBrBFwAAAAAQagRfAAAAAECoEXwBAAAAAKFG8AUAAAAAhBrBFwAAAAAQagRfAAAAAECoEXwBAAAAAKFG8AUAAAAAhBrBFwAAAAAQagRfAAAAAECoEXwBAAAAAKFG8AUAAAAAhBrBFwAAAAAQagRfAAAAAECoEXwBAAAAAKFG8AUAAAAAhBrBFwAAAAAQagRfAAAAAECoEXwBAAAAAKFG8AUAAAAAhBrBFwAAAAAQagRfAAAAAECoEXwBAAAAAKFG8AUAAAAAhBrBFwAAAAAQagRfAAAAAECoEXwBAAAAAKFG8AUAAAAAhBrBFwAAAAAQagRfAAAAAECoEXwBAAAAAKFG8AUAAAAAhBrBFwAAAAAQagRfAAAAAECoEXwBAAAAACFm9v+m8aQIEtxhHgAAAABJRU5ErkJggg==;" vertex="1" parent="1">
          <mxGeometry x="160" y="270" width="958" height="610" as="geometry" />
        </mxCell>
        <mxCell id="P2W2EsWUWs_uclE4OIuN-2" value="&lt;font color=&quot;#ea6b66&quot; style=&quot;font-size: 48px;&quot;&gt;1&lt;/font&gt;" style="text;html=1;align=center;verticalAlign=middle;whiteSpace=wrap;rounded=0;" vertex="1" parent="1">
          <mxGeometry x="210" y="630" width="60" height="30" as="geometry" />
        </mxCell>
        <mxCell id="P2W2EsWUWs_uclE4OIuN-3" value="&lt;font color=&quot;#ea6b66&quot; style=&quot;font-size: 48px;&quot;&gt;3&lt;/font&gt;" style="text;html=1;align=center;verticalAlign=middle;whiteSpace=wrap;rounded=0;spacingTop=12;" vertex="1" parent="1">
          <mxGeometry x="600" y="670" width="60" height="30" as="geometry" />
        </mxCell>
        <mxCell id="P2W2EsWUWs_uclE4OIuN-4" value="" style="endArrow=classic;html=1;rounded=0;exitX=1;exitY=0;exitDx=0;exitDy=0;entryX=0;entryY=1;entryDx=0;entryDy=0;fontColor=#EA6B66;fillColor=#f8cecc;strokeColor=#b85450;strokeWidth=3;" edge="1" parent="1" source="P2W2EsWUWs_uclE4OIuN-2" target="P2W2EsWUWs_uclE4OIuN-5">
          <mxGeometry width="50" height="50" relative="1" as="geometry">
            <mxPoint x="560" y="580" as="sourcePoint" />
            <mxPoint x="610" y="530" as="targetPoint" />
          </mxGeometry>
        </mxCell>
        <mxCell id="P2W2EsWUWs_uclE4OIuN-5" value="&lt;font color=&quot;#ea6b66&quot; style=&quot;font-size: 48px;&quot;&gt;2&lt;/font&gt;" style="text;html=1;align=center;verticalAlign=middle;whiteSpace=wrap;rounded=0;spacingBottom=12;" vertex="1" parent="1">
          <mxGeometry x="600" y="330" width="60" height="30" as="geometry" />
        </mxCell>
        <mxCell id="P2W2EsWUWs_uclE4OIuN-6" value="" style="endArrow=classic;html=1;rounded=0;exitX=0.5;exitY=1;exitDx=0;exitDy=0;entryX=0.5;entryY=0;entryDx=0;entryDy=0;fontColor=#EA6B66;fillColor=#f8cecc;strokeColor=#b85450;strokeWidth=3;" edge="1" parent="1" source="P2W2EsWUWs_uclE4OIuN-5" target="P2W2EsWUWs_uclE4OIuN-3">
          <mxGeometry width="50" height="50" relative="1" as="geometry">
            <mxPoint x="280" y="640" as="sourcePoint" />
            <mxPoint x="620" y="370" as="targetPoint" />
          </mxGeometry>
        </mxCell>
      </root>
    </mxGraphModel>
  </diagram>
</mxfile>
